<svg width="30" height="30" viewBox="0 0 30 30" fill="none" xmlns="http://www.w3.org/2000/svg">
<path d="M24.6426 0C26.0634 0 27.426 0.564677 28.4307 1.56934C29.4353 2.574 30 3.93662 30 5.35742V24.6426C30 26.0634 29.4353 27.426 28.4307 28.4307C27.426 29.4353 26.0634 30 24.6426 30H5.35742C3.93662 30 2.574 29.4353 1.56934 28.4307C0.564677 27.426 0 26.0634 0 24.6426V5.35742C0 3.93662 0.564677 2.574 1.56934 1.56934C2.574 0.564677 3.93662 0 5.35742 0H24.6426ZM2.14258 21.4287V24.6426C2.14262 25.4416 2.4404 26.2122 2.97754 26.8037C3.51475 27.3952 4.25348 27.7651 5.04883 27.8418L5.35742 27.8574H8.57129V21.4287H2.14258ZM10.7139 21.4287V27.8574H19.2861V21.4287H10.7139ZM21.4287 21.4287V27.8574H24.6426C25.4411 27.8574 26.2113 27.56 26.8027 27.0234C27.3942 26.4867 27.7646 25.7481 27.8418 24.9531L27.8574 24.6426V21.4287H21.4287ZM2.14258 10.7139V19.2861H8.57129V10.7139H2.14258ZM10.7139 10.7139V19.2861H19.2861V10.7139H10.7139ZM21.4287 10.7139V19.2861H27.8574V10.7139H21.4287ZM5.35742 2.14258C4.55845 2.14262 3.78776 2.4404 3.19629 2.97754C2.6048 3.51475 2.23491 4.25348 2.1582 5.04883L2.14258 5.35742V8.57129H8.57129V2.14258H5.35742ZM10.7139 2.14258V8.57129H19.2861V2.14258H10.7139ZM21.4287 2.14258V8.57129H27.8574V5.35742C27.8574 4.5589 27.56 3.78865 27.0234 3.19727C26.4867 2.60583 25.7481 2.23541 24.9531 2.1582L24.6426 2.14258H21.4287Z" fill="url(#paint0_linear_119_385)"/>
<path d="M24.6426 0C26.0634 0 27.426 0.564677 28.4307 1.56934C29.4353 2.574 30 3.93662 30 5.35742V24.6426C30 26.0634 29.4353 27.426 28.4307 28.4307C27.426 29.4353 26.0634 30 24.6426 30H5.35742C3.93662 30 2.574 29.4353 1.56934 28.4307C0.564677 27.426 0 26.0634 0 24.6426V5.35742C0 3.93662 0.564677 2.574 1.56934 1.56934C2.574 0.564677 3.93662 0 5.35742 0H24.6426ZM2.14258 21.4287V24.6426C2.14262 25.4416 2.4404 26.2122 2.97754 26.8037C3.51475 27.3952 4.25348 27.7651 5.04883 27.8418L5.35742 27.8574H8.57129V21.4287H2.14258ZM10.7139 21.4287V27.8574H19.2861V21.4287H10.7139ZM21.4287 21.4287V27.8574H24.6426C25.4411 27.8574 26.2113 27.56 26.8027 27.0234C27.3942 26.4867 27.7646 25.7481 27.8418 24.9531L27.8574 24.6426V21.4287H21.4287ZM2.14258 10.7139V19.2861H8.57129V10.7139H2.14258ZM10.7139 10.7139V19.2861H19.2861V10.7139H10.7139ZM21.4287 10.7139V19.2861H27.8574V10.7139H21.4287ZM5.35742 2.14258C4.55845 2.14262 3.78776 2.4404 3.19629 2.97754C2.6048 3.51475 2.23491 4.25348 2.1582 5.04883L2.14258 5.35742V8.57129H8.57129V2.14258H5.35742ZM10.7139 2.14258V8.57129H19.2861V2.14258H10.7139ZM21.4287 2.14258V8.57129H27.8574V5.35742C27.8574 4.5589 27.56 3.78865 27.0234 3.19727C26.4867 2.60583 25.7481 2.23541 24.9531 2.1582L24.6426 2.14258H21.4287Z" stroke="url(#paint1_linear_119_385)"/>
<defs>
<linearGradient id="paint0_linear_119_385" x1="15" y1="0" x2="15" y2="30" gradientUnits="userSpaceOnUse">
<stop stop-color="#E61E6A"/>
<stop offset="1" stop-color="#3E7FE6"/>
</linearGradient>
<linearGradient id="paint1_linear_119_385" x1="15" y1="0" x2="15" y2="30" gradientUnits="userSpaceOnUse">
<stop stop-color="#E61E6A"/>
<stop offset="1" stop-color="#80113B"/>
</linearGradient>
</defs>
</svg>
