<svg width="40" height="40" viewBox="0 0 40 40" fill="none" xmlns="http://www.w3.org/2000/svg">
<path d="M32.8574 0C34.7517 7.37455e-05 36.5687 0.752317 37.9082 2.0918C39.2477 3.43128 39.9999 5.24828 40 7.14258V32.8574C39.9999 34.7517 39.2477 36.5687 37.9082 37.9082C36.5687 39.2477 34.7517 39.9999 32.8574 40H7.14258C5.24828 39.9999 3.43128 39.2477 2.0918 37.9082C0.752317 36.5687 7.37448e-05 34.7517 0 32.8574V7.14258C7.41242e-05 5.24828 0.752317 3.43128 2.0918 2.0918C3.43128 0.752317 5.24828 7.41236e-05 7.14258 0H32.8574ZM2.85742 28.5713V32.8574C2.85754 33.9227 3.25448 34.9497 3.9707 35.7383C4.68698 36.5268 5.67105 37.0208 6.73145 37.123L7.14258 37.1426H11.4287V28.5713H2.85742ZM14.2861 28.5713V37.1426H25.7139V28.5713H14.2861ZM28.5713 28.5713V37.1426H32.8574C33.9223 37.1425 34.9488 36.7459 35.7373 36.0303C36.5258 35.3146 37.0201 34.3314 37.123 33.2715L37.1426 32.8574V28.5713H28.5713ZM2.85742 14.2861V25.7139H11.4287V14.2861H2.85742ZM14.2861 14.2861V25.7139H25.7139V14.2861H14.2861ZM28.5713 14.2861V25.7139H37.1426V14.2861H28.5713ZM7.14258 2.85742C6.0773 2.85754 5.0503 3.25448 4.26172 3.9707C3.47315 4.68698 2.97922 5.67105 2.87695 6.73145L2.85742 7.14258V11.4287H11.4287V2.85742H7.14258ZM14.2861 2.85742V11.4287H25.7139V2.85742H14.2861ZM28.5713 2.85742V11.4287H37.1426V7.14258C37.1425 6.07775 36.7459 5.05121 36.0303 4.2627C35.3146 3.4742 34.3314 2.9799 33.2715 2.87695L32.8574 2.85742H28.5713Z" fill="url(#paint0_linear_34_229)"/>
<path d="M32.8574 0C34.7517 7.37455e-05 36.5687 0.752317 37.9082 2.0918C39.2477 3.43128 39.9999 5.24828 40 7.14258V32.8574C39.9999 34.7517 39.2477 36.5687 37.9082 37.9082C36.5687 39.2477 34.7517 39.9999 32.8574 40H7.14258C5.24828 39.9999 3.43128 39.2477 2.0918 37.9082C0.752317 36.5687 7.37448e-05 34.7517 0 32.8574V7.14258C7.41242e-05 5.24828 0.752317 3.43128 2.0918 2.0918C3.43128 0.752317 5.24828 7.41236e-05 7.14258 0H32.8574ZM2.85742 28.5713V32.8574C2.85754 33.9227 3.25448 34.9497 3.9707 35.7383C4.68698 36.5268 5.67105 37.0208 6.73145 37.123L7.14258 37.1426H11.4287V28.5713H2.85742ZM14.2861 28.5713V37.1426H25.7139V28.5713H14.2861ZM28.5713 28.5713V37.1426H32.8574C33.9223 37.1425 34.9488 36.7459 35.7373 36.0303C36.5258 35.3146 37.0201 34.3314 37.123 33.2715L37.1426 32.8574V28.5713H28.5713ZM2.85742 14.2861V25.7139H11.4287V14.2861H2.85742ZM14.2861 14.2861V25.7139H25.7139V14.2861H14.2861ZM28.5713 14.2861V25.7139H37.1426V14.2861H28.5713ZM7.14258 2.85742C6.0773 2.85754 5.0503 3.25448 4.26172 3.9707C3.47315 4.68698 2.97922 5.67105 2.87695 6.73145L2.85742 7.14258V11.4287H11.4287V2.85742H7.14258ZM14.2861 2.85742V11.4287H25.7139V2.85742H14.2861ZM28.5713 2.85742V11.4287H37.1426V7.14258C37.1425 6.07775 36.7459 5.05121 36.0303 4.2627C35.3146 3.4742 34.3314 2.9799 33.2715 2.87695L32.8574 2.85742H28.5713Z" stroke="url(#paint1_linear_34_229)"/>
<defs>
<linearGradient id="paint0_linear_34_229" x1="20" y1="0" x2="20" y2="40" gradientUnits="userSpaceOnUse">
<stop stop-color="#E61E6A"/>
<stop offset="1" stop-color="#3E7FE6"/>
</linearGradient>
<linearGradient id="paint1_linear_34_229" x1="20" y1="0" x2="20" y2="40" gradientUnits="userSpaceOnUse">
<stop stop-color="#E61E6A"/>
<stop offset="1" stop-color="#80113B"/>
</linearGradient>
</defs>
</svg>
