<svg width="28" height="28" viewBox="0 0 28 28" fill="none" xmlns="http://www.w3.org/2000/svg">
<path d="M25.1252 13.5625C25.1271 15.0806 24.8295 16.5841 24.2492 17.987C23.669 19.3898 22.8176 20.6643 21.7439 21.7375C20.6697 22.812 19.3942 23.6642 17.9904 24.2455C16.5866 24.8267 15.0821 25.1256 13.5627 25.125C11.9274 25.1286 10.3102 24.7834 8.81893 24.1125L3.98518 24.8275C3.74518 24.8667 3.49924 24.8467 3.26873 24.7692C3.03821 24.6918 2.83009 24.5592 2.66244 24.3831C2.49479 24.2069 2.37268 23.9925 2.30672 23.7585C2.24075 23.5244 2.23293 23.2778 2.28393 23.04L2.95518 18.1363C2.31667 16.6965 1.99116 15.1375 2.00018 13.5625C1.99824 12.0444 2.29591 10.5409 2.87613 9.13804C3.45636 7.73522 4.30772 6.46069 5.38143 5.3875C6.45567 4.31302 7.73114 3.4608 9.13493 2.87955C10.5387 2.2983 12.0433 1.99942 13.5627 2C16.631 2.00021 19.5736 3.21863 21.7439 5.3875C22.8171 6.4611 23.6681 7.7357 24.2483 9.13844C24.8285 10.5412 25.1264 12.0445 25.1252 13.5625Z" stroke="url(#paint0_linear_25_249)" stroke-width="4" stroke-linecap="round" stroke-linejoin="round"/>
<defs>
<linearGradient id="paint0_linear_25_249" x1="13.5626" y1="2" x2="13.5626" y2="25.125" gradientUnits="userSpaceOnUse">
<stop stop-color="#E61E6A"/>
<stop offset="1" stop-color="#3E7FE6"/>
</linearGradient>
</defs>
</svg>
