<svg width="38" height="39" viewBox="0 0 38 39" fill="none" xmlns="http://www.w3.org/2000/svg">
<g filter="url(#filter0_d_25_255)">
<path d="M17.582 3.27792C18.5066 3.00433 19.4903 3.00375 20.416 3.27792C21.0762 3.47283 21.5968 3.80172 22.0156 4.11484C22.4096 4.4094 22.8427 4.79043 23.2803 5.17343L29.2754 10.4195C29.6412 10.7381 30.0999 11.1219 30.4785 11.609L30.6357 11.8248L30.6377 11.8277C30.9569 12.2982 31.193 12.8197 31.3369 13.3697L31.3379 13.3707C31.4738 13.8914 31.4968 14.4228 31.5 14.8824V22.0055C31.5 22.6628 31.5023 23.3065 31.458 23.8482C31.4112 24.4196 31.3004 25.0932 30.9551 25.7711L30.9541 25.774C30.4737 26.7142 29.7078 27.4783 28.7666 27.9566L28.7656 27.9557C28.0887 28.3002 27.4165 28.411 26.8467 28.4576C26.305 28.502 25.6613 28.4996 25.0039 28.4996H12.9961C12.3388 28.4996 11.6952 28.5019 11.1533 28.4576C10.5843 28.4111 9.91195 28.3005 9.23535 27.9566V27.9576C8.28709 27.4772 7.524 26.7093 7.0459 25.773L7.04395 25.7691C6.69942 25.0912 6.58871 24.4173 6.54199 23.8453C6.49771 23.303 6.5 22.6583 6.5 21.9996V14.8824C6.50316 14.4226 6.52657 13.8896 6.66309 13.3687L6.72168 13.1637C6.86828 12.6879 7.08481 12.2361 7.36523 11.8238C7.76734 11.2324 8.31619 10.7778 8.71973 10.4244V10.4234L14.7207 5.17148L14.7227 5.1705C15.1593 4.78886 15.5915 4.40756 15.9844 4.11386C16.4027 3.80111 16.922 3.47182 17.582 3.27695V3.27792Z" stroke="black" stroke-width="5" stroke-linecap="round" stroke-linejoin="round" shape-rendering="crispEdges"/>
</g>
<defs>
<filter id="filter0_d_25_255" x="-0.00170898" y="0.571869" width="38.0034" height="38.4282" filterUnits="userSpaceOnUse" color-interpolation-filters="sRGB">
<feFlood flood-opacity="0" result="BackgroundImageFix"/>
<feColorMatrix in="SourceAlpha" type="matrix" values="0 0 0 0 0 0 0 0 0 0 0 0 0 0 0 0 0 0 127 0" result="hardAlpha"/>
<feOffset dy="4"/>
<feGaussianBlur stdDeviation="2"/>
<feComposite in2="hardAlpha" operator="out"/>
<feColorMatrix type="matrix" values="0 0 0 0 0 0 0 0 0 0 0 0 0 0 0 0 0 0 0.25 0"/>
<feBlend mode="normal" in2="BackgroundImageFix" result="effect1_dropShadow_25_255"/>
<feBlend mode="normal" in="SourceGraphic" in2="effect1_dropShadow_25_255" result="shape"/>
</filter>
</defs>
</svg>
