<svg width="30" height="30" viewBox="0 0 30 30" fill="none" xmlns="http://www.w3.org/2000/svg">
<path d="M26.5626 15C26.5645 16.5181 26.2668 18.0216 25.6866 19.4245C25.1064 20.8273 24.255 22.1018 23.1813 23.175C22.1071 24.2495 20.8316 25.1017 19.4278 25.683C18.024 26.2642 16.5194 26.5631 15.0001 26.5625C13.3648 26.5661 11.7476 26.2209 10.2563 25.55L5.42256 26.265C5.18256 26.3042 4.93662 26.2842 4.70611 26.2067C4.47559 26.1293 4.26747 25.9967 4.09982 25.8206C3.93217 25.6444 3.81006 25.43 3.74409 25.196C3.67813 24.9619 3.67031 24.7153 3.72131 24.4775L4.39256 19.5738C3.75405 18.134 3.42854 16.575 3.43756 15C3.43562 13.4819 3.73329 11.9784 4.31351 10.5755C4.89373 9.17272 5.7451 7.89819 6.81881 6.825C7.89305 5.75052 9.16852 4.8983 10.5723 4.31705C11.9761 3.7358 13.4807 3.43692 15.0001 3.4375C18.0683 3.43771 21.011 4.65613 23.1813 6.825C24.2545 7.8986 25.1055 9.1732 25.6857 10.5759C26.2658 11.9787 26.5638 13.482 26.5626 15Z" stroke="black" stroke-width="5" stroke-linecap="round" stroke-linejoin="round"/>
</svg>
