<svg width="60" height="60" viewBox="0 0 60 60" fill="none" xmlns="http://www.w3.org/2000/svg">
<path d="M49.2861 0C52.1276 0.000111123 54.8531 1.12848 56.8623 3.1377C58.8715 5.14691 59.9999 7.87241 60 10.7139V49.2861C59.9999 52.1276 58.8715 54.8531 56.8623 56.8623C54.8531 58.8715 52.1276 59.9999 49.2861 60H10.7139C7.87241 59.9999 5.14691 58.8715 3.1377 56.8623C1.12848 54.8531 0.000111122 52.1276 0 49.2861V10.7139C0.000111123 7.87241 1.12848 5.14691 3.1377 3.1377C5.14691 1.12848 7.87241 0.000111122 10.7139 0H49.2861ZM4.28613 42.8574V49.2861C4.28631 50.8839 4.8809 52.4246 5.95508 53.6074C7.02941 54.7903 8.50616 55.5311 10.0967 55.6846L10.7139 55.7139H17.1426V42.8574H4.28613ZM21.4287 42.8574V55.7139H38.5713V42.8574H21.4287ZM42.8574 42.8574V55.7139H49.2861C50.8834 55.7138 52.4237 55.1193 53.6064 54.0459C54.7892 52.9724 55.5302 51.497 55.6846 49.9072L55.7139 49.2861V42.8574H42.8574ZM4.28613 21.4287V38.5713H17.1426V21.4287H4.28613ZM21.4287 21.4287V38.5713H38.5713V21.4287H21.4287ZM42.8574 21.4287V38.5713H55.7139V21.4287H42.8574ZM10.7139 4.28613C9.11607 4.28631 7.57542 4.8809 6.39258 5.95508C5.20971 7.02941 4.46894 8.50616 4.31543 10.0967L4.28613 10.7139V17.1426H17.1426V4.28613H10.7139ZM21.4287 4.28613V17.1426H38.5713V4.28613H21.4287ZM42.8574 4.28613V17.1426H55.7139V10.7139C55.7138 9.11662 55.1193 7.57633 54.0459 6.39355C52.9724 5.21083 51.497 4.46985 49.9072 4.31543L49.2861 4.28613H42.8574Z" fill="url(#paint0_linear_8_29)"/>
<path d="M49.2861 0C52.1276 0.000111123 54.8531 1.12848 56.8623 3.1377C58.8715 5.14691 59.9999 7.87241 60 10.7139V49.2861C59.9999 52.1276 58.8715 54.8531 56.8623 56.8623C54.8531 58.8715 52.1276 59.9999 49.2861 60H10.7139C7.87241 59.9999 5.14691 58.8715 3.1377 56.8623C1.12848 54.8531 0.000111122 52.1276 0 49.2861V10.7139C0.000111123 7.87241 1.12848 5.14691 3.1377 3.1377C5.14691 1.12848 7.87241 0.000111122 10.7139 0H49.2861ZM4.28613 42.8574V49.2861C4.28631 50.8839 4.8809 52.4246 5.95508 53.6074C7.02941 54.7903 8.50616 55.5311 10.0967 55.6846L10.7139 55.7139H17.1426V42.8574H4.28613ZM21.4287 42.8574V55.7139H38.5713V42.8574H21.4287ZM42.8574 42.8574V55.7139H49.2861C50.8834 55.7138 52.4237 55.1193 53.6064 54.0459C54.7892 52.9724 55.5302 51.497 55.6846 49.9072L55.7139 49.2861V42.8574H42.8574ZM4.28613 21.4287V38.5713H17.1426V21.4287H4.28613ZM21.4287 21.4287V38.5713H38.5713V21.4287H21.4287ZM42.8574 21.4287V38.5713H55.7139V21.4287H42.8574ZM10.7139 4.28613C9.11607 4.28631 7.57542 4.8809 6.39258 5.95508C5.20971 7.02941 4.46894 8.50616 4.31543 10.0967L4.28613 10.7139V17.1426H17.1426V4.28613H10.7139ZM21.4287 4.28613V17.1426H38.5713V4.28613H21.4287ZM42.8574 4.28613V17.1426H55.7139V10.7139C55.7138 9.11662 55.1193 7.57633 54.0459 6.39355C52.9724 5.21083 51.497 4.46985 49.9072 4.31543L49.2861 4.28613H42.8574Z" stroke="url(#paint1_linear_8_29)"/>
<defs>
<linearGradient id="paint0_linear_8_29" x1="30" y1="0" x2="30" y2="60" gradientUnits="userSpaceOnUse">
<stop stop-color="#E61E6A"/>
<stop offset="1" stop-color="#3E7FE6"/>
</linearGradient>
<linearGradient id="paint1_linear_8_29" x1="30" y1="0" x2="30" y2="60" gradientUnits="userSpaceOnUse">
<stop stop-color="#E61E6A"/>
<stop offset="1" stop-color="#80113B"/>
</linearGradient>
</defs>
</svg>
