<svg width="31" height="28" viewBox="0 0 31 28" fill="none" xmlns="http://www.w3.org/2000/svg">
<mask id="path-1-outside-1_25_240" maskUnits="userSpaceOnUse" x="0" y="0" width="31" height="28" fill="black">
<rect fill="white" width="31" height="28"/>
<path d="M15.25 7.75C15.25 7.75 15.25 7.75 14.3 6.5C13.2 5.05 11.575 4 9.625 4C6.5125 4 4 6.5125 4 9.625C4 10.7875 4.35 11.8625 4.95 12.75C5.9625 14.2625 15.25 24 15.25 24M15.25 7.75C15.25 7.75 15.25 7.75 16.2 6.5C17.3 5.05 18.925 4 20.875 4C23.9875 4 26.5 6.5125 26.5 9.625C26.5 10.7875 26.15 11.8625 25.55 12.75C24.5375 14.2625 15.25 24 15.25 24"/>
</mask>
<path d="M15.25 11.75C17.4591 11.75 19.25 9.95914 19.25 7.75C19.25 5.54086 17.4591 3.75 15.25 3.75V7.75V11.75ZM14.3 6.5L11.1132 8.91755L11.1154 8.92033L14.3 6.5ZM4.95 12.75L8.27397 10.5249C8.27058 10.5198 8.26718 10.5147 8.26377 10.5097L4.95 12.75ZM15.25 24L12.3555 26.7608C13.1103 27.5522 14.1563 28 15.25 28C16.3437 28 17.3897 27.5522 18.1445 26.7608L15.25 24ZM16.2 6.5L19.3847 8.92033L19.3868 8.91755L16.2 6.5ZM25.55 12.75L22.2362 10.5097C22.2328 10.5147 22.2294 10.5198 22.226 10.5249L25.55 12.75ZM15.25 7.75C15.25 3.75 17.0267 4.16626 18.4337 5.32839C18.4338 5.32855 18.434 5.32887 18.4342 5.32903C18.4343 5.32919 18.4344 5.32933 18.4344 5.32935C18.4345 5.32943 18.4345 5.3295 18.4345 5.3295C18.4346 5.32954 18.4346 5.32956 18.4346 5.32955C18.4345 5.32953 18.4345 5.32947 18.4344 5.32932C18.4342 5.32903 18.4337 5.32843 18.4328 5.32721C18.4309 5.32477 18.4272 5.31989 18.4198 5.31013C18.405 5.2906 18.3753 5.25154 18.3159 5.17341C18.1971 5.01717 17.9596 4.70467 17.4846 4.07967L14.3 6.5L11.1154 8.92033C11.5904 9.54533 11.8279 9.85783 11.9466 10.0141C12.006 10.0922 12.0357 10.1313 12.0505 10.1508C12.0579 10.1606 12.0616 10.1655 12.0635 10.1679C12.0644 10.1691 12.0649 10.1697 12.0651 10.1701C12.0653 10.1702 12.0653 10.1703 12.0654 10.1704C12.0654 10.1704 12.0654 10.1704 12.0655 10.1705C12.0655 10.1705 12.0655 10.1706 12.0656 10.1707C12.0656 10.1707 12.0657 10.1708 12.0658 10.171C12.066 10.1711 12.0662 10.1715 12.0663 10.1716C13.4733 11.3337 15.25 11.75 15.25 7.75ZM14.3 6.5L17.4868 4.08245C15.8283 1.89632 13.1209 0 9.625 0V4V8C10.0291 8 10.5717 8.20368 11.1132 8.91755L14.3 6.5ZM9.625 4V0C4.30336 0 0 4.30336 0 9.625H4H8C8 8.72164 8.72164 8 9.625 8V4ZM4 9.625H0C0 11.6023 0.598207 13.4549 1.63623 14.9903L4.95 12.75L8.26377 10.5097C8.10179 10.2701 8 9.97269 8 9.625H4ZM4.95 12.75L1.62603 14.9751C2.07721 15.6491 3.0856 16.791 4.01342 17.8218C5.05038 18.9739 6.32524 20.3533 7.55541 21.6714C8.78816 22.9923 9.98763 24.264 10.8781 25.2047C11.3236 25.6753 11.6923 26.0637 11.9499 26.3347C12.0787 26.4701 12.1798 26.5763 12.2488 26.6488C12.2833 26.685 12.3098 26.7129 12.3278 26.7317C12.3368 26.7411 12.3436 26.7483 12.3482 26.7532C12.3506 26.7556 12.3523 26.7574 12.3535 26.7587C12.3541 26.7593 12.3546 26.7598 12.3549 26.7602C12.3551 26.7603 12.3552 26.7605 12.3553 26.7606C12.3554 26.7607 12.3555 26.7608 15.25 24C18.1445 21.2392 18.1445 21.2392 18.1445 21.2392C18.1444 21.2391 18.1443 21.2391 18.1442 21.2389C18.144 21.2387 18.1436 21.2383 18.1431 21.2377C18.142 21.2366 18.1404 21.235 18.1383 21.2327C18.134 21.2282 18.1275 21.2214 18.1189 21.2123C18.1016 21.1942 18.0758 21.1672 18.0421 21.1317C17.9746 21.0608 17.8751 20.9563 17.748 20.8226C17.4937 20.5552 17.129 20.171 16.6879 19.7051C15.8053 18.7727 14.6197 17.5156 13.404 16.213C12.1857 14.9076 10.9488 13.569 9.95962 12.47C9.46385 11.9191 9.04408 11.4438 8.72556 11.0706C8.3607 10.6432 8.25234 10.4925 8.27397 10.5249L4.95 12.75ZM15.25 7.75C15.25 3.75 18.8333 5.97238 18.4349 10.17C18.4348 10.1701 18.4348 10.1701 18.4348 10.1702C18.4347 10.1702 18.4347 10.1703 18.4347 10.1703C18.4347 10.1703 18.4347 10.1703 18.4347 10.1703C18.4347 10.1703 18.4347 10.1703 18.4347 10.1703C18.4347 10.1702 18.4348 10.1702 18.4349 10.17C18.4351 10.1697 18.4356 10.1691 18.4365 10.1679C18.4384 10.1654 18.4421 10.1606 18.4495 10.1508C18.4643 10.1313 18.494 10.0922 18.5534 10.0141C18.6721 9.85783 18.9096 9.54533 19.3846 8.92033L16.2 6.5L13.0154 4.07967C12.5404 4.70467 12.3029 5.01717 12.1841 5.17342C12.1247 5.25154 12.095 5.29061 12.0802 5.31014C12.0728 5.3199 12.0691 5.32479 12.0672 5.32723C12.0663 5.32845 12.0658 5.32906 12.0656 5.32937C12.0655 5.32952 12.0654 5.3296 12.0654 5.32965C12.0654 5.32967 12.0653 5.32968 12.0653 5.3297C12.0653 5.3297 12.0653 5.32972 12.0653 5.32974C12.0653 5.32975 12.0653 5.32978 12.0652 5.32981C12.0652 5.32985 12.0652 5.32993 12.0651 5.32996C11.6667 9.52762 15.25 11.75 15.25 7.75ZM16.2 6.5L19.3868 8.91755C19.9283 8.20368 20.4709 8 20.875 8V4V0C17.3791 0 14.6717 1.89632 13.0132 4.08245L16.2 6.5ZM20.875 4V8C21.7784 8 22.5 8.72164 22.5 9.625H26.5H30.5C30.5 4.30336 26.1966 0 20.875 0V4ZM26.5 9.625H22.5C22.5 9.97269 22.3982 10.2701 22.2362 10.5097L25.55 12.75L28.8638 14.9903C29.9018 13.4549 30.5 11.6023 30.5 9.625H26.5ZM25.55 12.75L22.226 10.5249C22.2477 10.4925 22.1393 10.6432 21.7744 11.0706C21.4559 11.4438 21.0361 11.9191 20.5404 12.47C19.5512 13.569 18.3143 14.9076 17.096 16.213C15.8803 17.5156 14.6947 18.7727 13.8121 19.7051C13.371 20.171 13.0063 20.5552 12.752 20.8226C12.6249 20.9563 12.5254 21.0608 12.4579 21.1317C12.4242 21.1672 12.3984 21.1942 12.3811 21.2123C12.3725 21.2214 12.366 21.2282 12.3617 21.2327C12.3596 21.235 12.358 21.2366 12.3569 21.2377C12.3564 21.2383 12.356 21.2387 12.3558 21.2389C12.3557 21.2391 12.3556 21.2391 12.3555 21.2392C12.3555 21.2392 12.3555 21.2392 15.25 24C18.1445 26.7608 18.1446 26.7607 18.1447 26.7606C18.1448 26.7605 18.1449 26.7603 18.1451 26.7602C18.1454 26.7598 18.1459 26.7593 18.1465 26.7587C18.1477 26.7574 18.1494 26.7556 18.1518 26.7532C18.1564 26.7483 18.1632 26.7411 18.1722 26.7317C18.1902 26.7129 18.2167 26.685 18.2512 26.6488C18.3202 26.5763 18.4213 26.4701 18.5501 26.3347C18.8077 26.0637 19.1764 25.6753 19.6219 25.2047C20.5124 24.264 21.7118 22.9923 22.9446 21.6714C24.1748 20.3533 25.4496 18.9739 26.4866 17.8218C27.4144 16.791 28.4228 15.6491 28.874 14.9751L25.55 12.75Z" fill="url(#paint0_linear_25_240)" mask="url(#path-1-outside-1_25_240)"/>
<defs>
<linearGradient id="paint0_linear_25_240" x1="15.25" y1="4" x2="15.25" y2="24" gradientUnits="userSpaceOnUse">
<stop stop-color="#E61E6A"/>
<stop offset="1" stop-color="#3E7FE6"/>
</linearGradient>
</defs>
</svg>
