<svg width="62" height="63" viewBox="0 0 62 63" fill="none" xmlns="http://www.w3.org/2000/svg">
<g filter="url(#filter0_d_6_59)">
<path d="M28.585 3.9953C30.1609 3.52804 31.8383 3.52654 33.415 3.9953L33.4141 3.99628C34.4931 4.31588 35.3685 4.85937 36.1328 5.43085C36.8638 5.97736 37.68 6.69474 38.5723 7.47577L50.5664 17.9709L51.2314 18.5519C51.7818 19.0408 52.3144 19.5486 52.7686 20.133L53.0303 20.4933L53.0332 20.4973C53.5082 21.1972 53.8757 21.9635 54.124 22.7707L54.2236 23.1193V23.1213C54.526 24.2799 54.5 25.4776 54.5 26.6301V40.0099C54.5 41.3496 54.5024 42.5651 54.4199 43.5734C54.334 44.623 54.1392 45.751 53.5742 46.8605L53.5713 46.8654C52.7555 48.4616 51.4558 49.7583 49.8584 50.5715C48.7486 51.138 47.6203 51.3342 46.5713 51.4201C45.5633 51.5026 44.3473 51.5002 43.0078 51.5002H18.9922C17.6526 51.5002 16.4363 51.5026 15.4277 51.4201C14.3788 51.3343 13.249 51.1393 12.1387 50.5724V50.5715C10.533 49.7553 9.23942 48.4539 8.42773 46.8644L8.4248 46.8576C7.86086 45.7477 7.66591 44.6194 7.58008 43.5685C7.49765 42.5591 7.5 41.3422 7.5 40.0002V26.6301C7.5 25.4801 7.47385 24.2767 7.77734 23.1183H7.77637C8.02186 22.1812 8.42586 21.2924 8.9707 20.4914C9.64167 19.5043 10.5604 18.7353 11.4268 17.9767H11.4277L23.4297 7.47089L23.4316 7.46991C24.3228 6.69108 25.1381 5.97396 25.8672 5.42889C26.6309 4.85795 27.5054 4.31478 28.585 3.9953Z" stroke="black" stroke-width="7" stroke-linecap="round" stroke-linejoin="round" shape-rendering="crispEdges"/>
</g>
<defs>
<filter id="filter0_d_6_59" x="-0.0020752" y="0.143738" width="62.004" height="62.8563" filterUnits="userSpaceOnUse" color-interpolation-filters="sRGB">
<feFlood flood-opacity="0" result="BackgroundImageFix"/>
<feColorMatrix in="SourceAlpha" type="matrix" values="0 0 0 0 0 0 0 0 0 0 0 0 0 0 0 0 0 0 127 0" result="hardAlpha"/>
<feOffset dy="4"/>
<feGaussianBlur stdDeviation="2"/>
<feComposite in2="hardAlpha" operator="out"/>
<feColorMatrix type="matrix" values="0 0 0 0 0 0 0 0 0 0 0 0 0 0 0 0 0 0 0.25 0"/>
<feBlend mode="normal" in2="BackgroundImageFix" result="effect1_dropShadow_6_59"/>
<feBlend mode="normal" in="SourceGraphic" in2="effect1_dropShadow_6_59" result="shape"/>
</filter>
</defs>
</svg>
