<svg width="54" height="54" viewBox="0 0 54 54" fill="none" xmlns="http://www.w3.org/2000/svg">
<path d="M50.125 27C50.1289 30.0362 49.5335 33.0433 48.3731 35.8489C47.2126 38.6546 45.5099 41.2036 43.3625 43.35C41.214 45.499 38.6631 47.2034 35.8555 48.3659C33.0479 49.5284 30.0387 50.1262 27 50.125C23.7295 50.1322 20.4951 49.4419 17.5125 48.1L7.845 49.53C7.365 49.6084 6.87312 49.5684 6.41209 49.4135C5.95106 49.2586 5.53481 48.9935 5.19951 48.6412C4.86421 48.2889 4.61999 47.86 4.48807 47.3919C4.35614 46.9238 4.3405 46.4305 4.4425 45.955L5.785 36.1475C4.50798 33.2679 3.85696 30.15 3.875 27C3.87112 23.9638 4.46646 20.9567 5.6269 18.1511C6.78734 15.3454 8.49007 12.7964 10.6375 10.65C12.786 8.50105 15.3369 6.7966 18.1445 5.6341C20.9521 4.4716 23.9613 3.87384 27 3.875C33.1365 3.87541 39.0219 6.31226 43.3625 10.65C45.5088 12.7972 47.2108 15.3464 48.3712 18.1519C49.5316 20.9573 50.1275 23.964 50.125 27Z" stroke="black" stroke-width="7" stroke-linecap="round" stroke-linejoin="round"/>
</svg>
