<svg width="33" height="30" viewBox="0 0 33 30" fill="none" xmlns="http://www.w3.org/2000/svg">
<mask id="path-1-outside-1_25_238" maskUnits="userSpaceOnUse" x="0" y="0" width="33" height="30" fill="black">
<rect fill="white" width="33" height="30"/>
<path d="M16.25 8.75C16.25 8.75 16.25 8.75 15.3 7.5C14.2 6.05 12.575 5 10.625 5C7.5125 5 5 7.5125 5 10.625C5 11.7875 5.35 12.8625 5.95 13.75C6.9625 15.2625 16.25 25 16.25 25M16.25 8.75C16.25 8.75 16.25 8.75 17.2 7.5C18.3 6.05 19.925 5 21.875 5C24.9875 5 27.5 7.5125 27.5 10.625C27.5 11.7875 27.15 12.8625 26.55 13.75C25.5375 15.2625 16.25 25 16.25 25"/>
</mask>
<path d="M16.25 8.75L15.428 13.682C17.8686 14.0887 20.2398 12.6492 21.0049 10.2962C21.7701 7.9432 20.6991 5.3844 18.4861 4.27786L16.25 8.75ZM15.3 7.5L11.3165 10.5219L11.3192 10.5254L15.3 7.5ZM5.95 13.75L10.105 10.9686C10.1007 10.9623 10.0965 10.9559 10.0922 10.9496L5.95 13.75ZM16.25 25L12.6319 28.4509C13.5754 29.4402 14.8829 30 16.25 30C17.6171 30 18.9246 29.4402 19.8681 28.4509L16.25 25ZM17.2 7.5L21.1808 10.5254L21.1835 10.5219L17.2 7.5ZM26.55 13.75L22.4078 10.9496C22.4035 10.9559 22.3993 10.9623 22.395 10.9686L26.55 13.75ZM16.25 8.75C17.072 3.81803 18.8332 4.46897 20.2301 5.72362C20.2302 5.72374 20.2304 5.72398 20.2304 5.7241C20.2305 5.72423 20.2306 5.72433 20.2306 5.72434C20.2307 5.7244 20.2307 5.72445 20.2307 5.72446C20.2307 5.72449 20.2307 5.7245 20.2307 5.72449C20.2307 5.72446 20.2307 5.7244 20.2306 5.72425C20.2303 5.72395 20.2299 5.72335 20.2289 5.72213C20.2271 5.71969 20.2234 5.71481 20.216 5.70505C20.2011 5.68552 20.1714 5.64646 20.1121 5.56833C19.9933 5.41208 19.7558 5.09958 19.2808 4.47458L15.3 7.5L11.3192 10.5254C11.7942 11.1504 12.0317 11.4629 12.1504 11.6192C12.2098 11.6973 12.2395 11.7364 12.2543 11.7559C12.2618 11.7657 12.2655 11.7705 12.2673 11.773C12.2683 11.7742 12.2687 11.7748 12.269 11.7751C12.2691 11.7753 12.2692 11.7754 12.2692 11.7754C12.2692 11.7755 12.2692 11.7755 12.2693 11.7755C12.2693 11.7755 12.2693 11.7756 12.2694 11.7757C12.2694 11.7757 12.2695 11.7758 12.2696 11.7759C12.2696 11.776 12.2698 11.7763 12.2699 11.7764C13.6668 13.031 15.428 13.682 16.25 8.75ZM15.3 7.5L19.2835 4.47807C17.4854 2.1079 14.5074 0 10.625 0V5V10C10.6736 10 10.7282 10.0068 10.8267 10.0623C10.9438 10.1283 11.1243 10.2685 11.3165 10.5219L15.3 7.5ZM10.625 5V0C4.75108 0 0 4.75108 0 10.625H5H10C10 10.2739 10.2739 10 10.625 10V5ZM5 10.625H0C0 12.806 0.660259 14.853 1.80779 16.5504L5.95 13.75L10.0922 10.9496C10.0397 10.872 10 10.769 10 10.625H5ZM5.95 13.75L1.79504 16.5314C2.29573 17.2794 3.36365 18.4837 4.27015 19.4908C5.31307 20.6496 6.59269 22.034 7.82434 23.3537C9.05923 24.6768 10.2604 25.9504 11.1519 26.8922C11.5979 27.3634 11.9671 27.7522 12.2252 28.0237C12.3542 28.1594 12.4554 28.2658 12.5247 28.3384C12.5593 28.3748 12.5858 28.4027 12.6039 28.4216C12.6129 28.4311 12.6198 28.4383 12.6245 28.4432C12.6268 28.4457 12.6286 28.4475 12.6298 28.4488C12.6305 28.4495 12.6309 28.45 12.6313 28.4503C12.6314 28.4505 12.6316 28.4507 12.6317 28.4507C12.6318 28.4509 12.6319 28.4509 16.25 25C19.8681 21.5491 19.8682 21.5491 19.8681 21.549C19.8681 21.549 19.868 21.5489 19.8679 21.5488C19.8677 21.5485 19.8673 21.5481 19.8668 21.5476C19.8658 21.5465 19.8642 21.5449 19.862 21.5427C19.8578 21.5382 19.8513 21.5314 19.8428 21.5224C19.8256 21.5044 19.7999 21.4775 19.7662 21.4421C19.6989 21.3714 19.5996 21.2671 19.4727 21.1336C19.2189 20.8666 18.8546 20.4829 18.4141 20.0176C17.5326 19.0863 16.3486 17.831 15.135 16.5307C13.9183 15.2269 12.6861 13.8934 11.7029 12.801C11.2098 12.2531 10.7966 11.785 10.4861 11.4214C10.1178 10.9899 10.0463 10.8809 10.105 10.9686L5.95 13.75ZM16.25 8.75C18.4861 4.27786 21.1198 7.61643 20.2312 11.7749C20.2311 11.775 20.2311 11.7751 20.231 11.7752C20.231 11.7752 20.2309 11.7753 20.2309 11.7753C20.2309 11.7753 20.2309 11.7753 20.2309 11.7753C20.2309 11.7754 20.2309 11.7754 20.2309 11.7753C20.2309 11.7753 20.2309 11.7752 20.2311 11.7751C20.2313 11.7748 20.2317 11.7742 20.2327 11.773C20.2345 11.7705 20.2382 11.7656 20.2457 11.7559C20.2605 11.7364 20.2902 11.6973 20.3496 11.6192C20.4683 11.4629 20.7058 11.1504 21.1808 10.5254L17.2 7.5L13.2192 4.47458C12.7442 5.09958 12.5067 5.41208 12.3879 5.56833C12.3286 5.64646 12.2989 5.68552 12.284 5.70506C12.2766 5.71482 12.2729 5.71971 12.271 5.72215C12.2701 5.72337 12.2696 5.72398 12.2694 5.72429C12.2693 5.72445 12.2692 5.72453 12.2692 5.72458C12.2692 5.7246 12.2692 5.72462 12.2691 5.72464C12.2691 5.72465 12.2691 5.72468 12.2691 5.72471C12.2691 5.72472 12.269 5.72477 12.269 5.72484C12.2689 5.7249 12.2689 5.72503 12.2688 5.72509C11.3802 9.88357 14.0139 13.2221 16.25 8.75ZM17.2 7.5L21.1835 10.5219C21.3757 10.2685 21.5562 10.1283 21.6733 10.0623C21.7718 10.0068 21.8264 10 21.875 10V5V0C17.9926 0 15.0146 2.1079 13.2165 4.47807L17.2 7.5ZM21.875 5V10C22.2261 10 22.5 10.2739 22.5 10.625H27.5H32.5C32.5 4.75108 27.7489 0 21.875 0V5ZM27.5 10.625H22.5C22.5 10.769 22.4603 10.872 22.4078 10.9496L26.55 13.75L30.6922 16.5504C31.8397 14.853 32.5 12.806 32.5 10.625H27.5ZM26.55 13.75L22.395 10.9686C22.4537 10.8809 22.3822 10.9899 22.0139 11.4214C21.7034 11.785 21.2902 12.2531 20.7971 12.801C19.8139 13.8934 18.5817 15.2269 17.365 16.5307C16.1514 17.831 14.9674 19.0863 14.0859 20.0176C13.6454 20.4829 13.2811 20.8666 13.0273 21.1336C12.9004 21.2671 12.8011 21.3714 12.7338 21.4421C12.7001 21.4775 12.6744 21.5044 12.6572 21.5224C12.6487 21.5314 12.6422 21.5382 12.638 21.5427C12.6358 21.5449 12.6342 21.5465 12.6332 21.5476C12.6327 21.5481 12.6323 21.5485 12.6321 21.5488C12.632 21.5489 12.6319 21.549 12.6319 21.549C12.6318 21.5491 12.6319 21.5491 16.25 25C19.8681 28.4509 19.8682 28.4509 19.8683 28.4507C19.8684 28.4507 19.8686 28.4505 19.8687 28.4503C19.8691 28.45 19.8695 28.4495 19.8702 28.4488C19.8714 28.4475 19.8732 28.4457 19.8755 28.4432C19.8802 28.4383 19.8871 28.4311 19.8961 28.4216C19.9142 28.4027 19.9407 28.3748 19.9753 28.3384C20.0446 28.2658 20.1458 28.1594 20.2748 28.0237C20.5329 27.7522 20.9021 27.3634 21.3481 26.8922C22.2396 25.9504 23.4408 24.6768 24.6757 23.3537C25.9073 22.034 27.1869 20.6496 28.2299 19.4908C29.1364 18.4837 30.2043 17.2794 30.705 16.5314L26.55 13.75Z" fill="black" mask="url(#path-1-outside-1_25_238)"/>
</svg>
