<svg width="60" height="55" viewBox="0 0 60 55" fill="none" xmlns="http://www.w3.org/2000/svg">
<mask id="path-1-outside-1_6_48" maskUnits="userSpaceOnUse" x="0.5" y="0.5" width="59" height="54" fill="black">
<rect fill="white" x="0.5" y="0.5" width="59" height="54"/>
<path d="M30 15C30 15 30 15 28.1 12.5C25.9 9.6 22.65 7.5 18.75 7.5C12.525 7.5 7.5 12.525 7.5 18.75C7.5 21.075 8.2 23.225 9.4 25C11.425 28.025 30 47.5 30 47.5M30 15C30 15 30 15 31.9 12.5C34.1 9.6 37.35 7.5 41.25 7.5C47.475 7.5 52.5 12.525 52.5 18.75C52.5 21.075 51.8 23.225 50.6 25C48.575 28.025 30 47.5 30 47.5"/>
</mask>
<path d="M30 15L28.8492 21.9048C32.2661 22.4742 35.5857 20.4589 36.6569 17.1647C37.7281 13.8705 36.2288 10.2882 33.1305 8.73901L30 15ZM28.1 12.5L22.5232 16.7307L22.5269 16.7356L28.1 12.5ZM9.4 25L15.2169 21.106C15.211 21.0972 15.2051 21.0883 15.1991 21.0795L9.4 25ZM30 47.5L24.9346 52.3313C26.2556 53.7163 28.0861 54.5 30 54.5C31.9139 54.5 33.7444 53.7163 35.0654 52.3313L30 47.5ZM31.9 12.5L37.4731 16.7356L37.4768 16.7307L31.9 12.5ZM50.6 25L44.8009 21.0795C44.7949 21.0883 44.789 21.0972 44.7831 21.106L50.6 25ZM30 15C31.1508 8.09524 33.6164 9.00656 35.5721 10.7631C35.5722 10.7632 35.5725 10.7636 35.5726 10.7637C35.5728 10.7639 35.5729 10.7641 35.5729 10.7641C35.5729 10.7642 35.573 10.7642 35.573 10.7642C35.573 10.7643 35.573 10.7643 35.573 10.7643C35.573 10.7642 35.5729 10.7641 35.5726 10.7638C35.5722 10.7632 35.5713 10.762 35.5694 10.7595C35.5657 10.7546 35.5583 10.7449 35.5434 10.7253C35.5138 10.6863 35.4544 10.6082 35.3356 10.4519C35.0981 10.1394 34.6231 9.51442 33.6731 8.26442L28.1 12.5L22.5269 16.7356C23.4769 17.9856 23.9519 18.6106 24.1894 18.9231C24.3081 19.0793 24.3675 19.1575 24.3972 19.1965C24.412 19.2161 24.4195 19.2258 24.4232 19.2307C24.425 19.2332 24.426 19.2344 24.4264 19.235C24.4267 19.2353 24.4268 19.2355 24.4269 19.2356C24.4269 19.2356 24.4269 19.2357 24.427 19.2357C24.427 19.2358 24.4271 19.2358 24.4271 19.2359C24.4271 19.2359 24.4272 19.2361 24.4274 19.2363C24.4275 19.2364 24.4278 19.2368 24.4279 19.2369C26.3836 20.9934 28.8492 21.9048 30 15ZM28.1 12.5L33.6768 8.26929C30.4996 4.08106 25.3553 0.5 18.75 0.5V7.5V14.5C19.9447 14.5 21.3004 15.1189 22.5232 16.7307L28.1 12.5ZM18.75 7.5V0.5C8.65901 0.5 0.5 8.65901 0.5 18.75H7.5H14.5C14.5 16.391 16.391 14.5 18.75 14.5V7.5ZM7.5 18.75H0.5C0.5 22.5009 1.63436 26.0117 3.6009 28.9205L9.4 25L15.1991 21.0795C14.7656 20.4383 14.5 19.6491 14.5 18.75H7.5ZM9.4 25L3.58305 28.894C4.4359 30.168 6.39317 32.3893 8.27012 34.4747C10.3381 36.7723 12.883 39.5259 15.3419 42.1605C17.8053 44.7999 20.2025 47.3416 21.9824 49.2219C22.8728 50.1626 23.6098 50.9388 24.1246 51.4803C24.382 51.7511 24.5839 51.9632 24.7218 52.108C24.7907 52.1804 24.8436 52.2359 24.8794 52.2735C24.8974 52.2923 24.911 52.3066 24.9202 52.3163C24.9249 52.3211 24.9284 52.3248 24.9308 52.3273C24.932 52.3286 24.9329 52.3295 24.9335 52.3302C24.9338 52.3305 24.9341 52.3308 24.9343 52.331C24.9345 52.3312 24.9346 52.3313 30 47.5C35.0654 42.6687 35.0654 42.6687 35.0653 42.6686C35.0652 42.6684 35.065 42.6683 35.0648 42.668C35.0643 42.6675 35.0635 42.6667 35.0625 42.6656C35.0604 42.6634 35.0571 42.66 35.0528 42.6555C35.0442 42.6464 35.0312 42.6328 35.0139 42.6146C34.9793 42.5783 34.9276 42.5241 34.86 42.4531C34.7248 42.3111 34.5257 42.1019 34.2712 41.8343C33.7623 41.2989 33.0322 40.53 32.1496 39.5976C30.3835 37.7318 28.0104 35.2157 25.5769 32.6083C23.1388 29.996 20.6604 27.3137 18.676 25.1089C17.6817 24.0042 16.8357 23.0462 16.1906 22.2905C15.4643 21.4398 15.2107 21.0967 15.2169 21.106L9.4 25ZM30 15C33.1305 8.73901 36.8177 13.413 35.5737 19.2349C35.5736 19.235 35.5735 19.2351 35.5734 19.2352C35.5733 19.2353 35.5733 19.2354 35.5733 19.2354C35.5732 19.2354 35.5732 19.2355 35.5732 19.2355C35.5732 19.2355 35.5732 19.2355 35.5732 19.2355C35.5733 19.2354 35.5734 19.2353 35.5736 19.235C35.5741 19.2343 35.575 19.2331 35.5769 19.2307C35.5806 19.2258 35.588 19.216 35.6028 19.1965C35.6325 19.1575 35.6919 19.0793 35.8106 18.9231C36.0481 18.6106 36.5231 17.9856 37.4731 16.7356L31.9 12.5L26.3269 8.26442C25.3769 9.51442 24.9019 10.1394 24.6644 10.4519C24.5456 10.6082 24.4862 10.6863 24.4565 10.7254C24.4417 10.7449 24.4343 10.7547 24.4306 10.7595C24.4287 10.762 24.4278 10.7632 24.4273 10.7638C24.4271 10.7641 24.427 10.7643 24.4269 10.7644C24.4269 10.7644 24.4268 10.7645 24.4268 10.7645C24.4268 10.7645 24.4268 10.7645 24.4267 10.7646C24.4267 10.7646 24.4267 10.7647 24.4266 10.7648C24.4265 10.7649 24.4264 10.765 24.4263 10.7651C23.1823 16.587 26.8695 21.261 30 15ZM31.9 12.5L37.4768 16.7307C38.6996 15.1189 40.0553 14.5 41.25 14.5V7.5V0.5C34.6447 0.5 29.5004 4.08106 26.3232 8.26929L31.9 12.5ZM41.25 7.5V14.5C43.609 14.5 45.5 16.391 45.5 18.75H52.5H59.5C59.5 8.65901 51.341 0.5 41.25 0.5V7.5ZM52.5 18.75H45.5C45.5 19.6491 45.2344 20.4383 44.8009 21.0795L50.6 25L56.3991 28.9205C58.3656 26.0117 59.5 22.5009 59.5 18.75H52.5ZM50.6 25L44.7831 21.106C44.7893 21.0967 44.5357 21.4398 43.8094 22.2905C43.1643 23.0462 42.3183 24.0042 41.324 25.1089C39.3396 27.3137 36.8612 29.996 34.4231 32.6083C31.9896 35.2157 29.6165 37.7318 27.8504 39.5976C26.9678 40.53 26.2377 41.2989 25.7288 41.8343C25.4743 42.1019 25.2752 42.3111 25.14 42.4531C25.0724 42.5241 25.0207 42.5783 24.9861 42.6146C24.9688 42.6328 24.9558 42.6464 24.9472 42.6555C24.9429 42.66 24.9396 42.6634 24.9375 42.6656C24.9365 42.6667 24.9357 42.6675 24.9352 42.668C24.935 42.6683 24.9348 42.6684 24.9347 42.6686C24.9346 42.6687 24.9346 42.6687 30 47.5C35.0654 52.3313 35.0655 52.3312 35.0657 52.331C35.0659 52.3308 35.0662 52.3305 35.0665 52.3302C35.0671 52.3295 35.068 52.3286 35.0692 52.3273C35.0716 52.3248 35.0751 52.3211 35.0798 52.3163C35.089 52.3066 35.1026 52.2923 35.1206 52.2735C35.1564 52.2359 35.2093 52.1804 35.2782 52.108C35.4161 51.9632 35.618 51.7511 35.8754 51.4803C36.3902 50.9388 37.1272 50.1626 38.0176 49.2219C39.7975 47.3416 42.1947 44.7999 44.6581 42.1605C47.117 39.5259 49.6619 36.7723 51.7299 34.4747C53.6068 32.3893 55.5641 30.168 56.4169 28.894L50.6 25Z" fill="black" mask="url(#path-1-outside-1_6_48)"/>
</svg>
