<svg width="36" height="36" viewBox="0 0 36 36" fill="none" xmlns="http://www.w3.org/2000/svg">
<g filter="url(#filter0_d_121_394)">
<path d="M8 13.7431V20.4281C8 21.8281 8 22.5281 8.2725 23.0644C8.5125 23.5344 8.89375 23.9169 9.365 24.1556C9.89875 24.4281 10.5987 24.4281 11.9962 24.4281H24.0037C25.4012 24.4281 26.1 24.4281 26.6337 24.1556C27.1044 23.9165 27.4873 23.5345 27.7275 23.0644C28 22.5294 28 21.8306 28 20.4331V13.7431C28 13.0756 28 12.7419 27.9187 12.4306C27.8468 12.1555 27.7284 11.8947 27.5687 11.6594C27.3875 11.3931 27.1375 11.1719 26.6337 10.7331L20.6337 5.48312C19.7013 4.66687 19.2338 4.25813 18.7088 4.10313C18.2463 3.96563 17.7537 3.96563 17.29 4.10313C16.765 4.25813 16.3 4.66562 15.3675 5.48063L9.36625 10.7331C8.86375 11.1731 8.6125 11.3931 8.4325 11.6581C8.27225 11.8937 8.15346 12.155 8.08125 12.4306C8 12.7406 8 13.0756 8 13.7431Z" fill="url(#paint0_linear_121_394)"/>
<path d="M8 13.7431V20.4281C8 21.8281 8 22.5281 8.2725 23.0644C8.5125 23.5344 8.89375 23.9169 9.365 24.1556C9.89875 24.4281 10.5987 24.4281 11.9962 24.4281H24.0037C25.4012 24.4281 26.1 24.4281 26.6337 24.1556C27.1044 23.9165 27.4873 23.5345 27.7275 23.0644C28 22.5294 28 21.8306 28 20.4331V13.7431C28 13.0756 28 12.7419 27.9187 12.4306C27.8468 12.1555 27.7284 11.8947 27.5687 11.6594C27.3875 11.3931 27.1375 11.1719 26.6337 10.7331L20.6337 5.48312C19.7013 4.66687 19.2338 4.25813 18.7088 4.10313C18.2463 3.96563 17.7537 3.96563 17.29 4.10313C16.765 4.25813 16.3 4.66562 15.3675 5.48063L9.36625 10.7331C8.86375 11.1731 8.6125 11.3931 8.4325 11.6581C8.27225 11.8937 8.15346 12.155 8.08125 12.4306C8 12.7406 8 13.0756 8 13.7431Z" stroke="url(#paint1_linear_121_394)" stroke-width="7" stroke-linecap="round" stroke-linejoin="round"/>
</g>
<defs>
<filter id="filter0_d_121_394" x="0.499023" y="0.5" width="35.002" height="35.4282" filterUnits="userSpaceOnUse" color-interpolation-filters="sRGB">
<feFlood flood-opacity="0" result="BackgroundImageFix"/>
<feColorMatrix in="SourceAlpha" type="matrix" values="0 0 0 0 0 0 0 0 0 0 0 0 0 0 0 0 0 0 127 0" result="hardAlpha"/>
<feOffset dy="4"/>
<feGaussianBlur stdDeviation="2"/>
<feComposite in2="hardAlpha" operator="out"/>
<feColorMatrix type="matrix" values="0 0 0 0 0 0 0 0 0 0 0 0 0 0 0 0 0 0 0.25 0"/>
<feBlend mode="normal" in2="BackgroundImageFix" result="effect1_dropShadow_121_394"/>
<feBlend mode="normal" in="SourceGraphic" in2="effect1_dropShadow_121_394" result="shape"/>
</filter>
<linearGradient id="paint0_linear_121_394" x1="18" y1="4" x2="18" y2="24.4281" gradientUnits="userSpaceOnUse">
<stop stop-color="#E61E6A"/>
<stop offset="1" stop-color="#3E7FE6"/>
</linearGradient>
<linearGradient id="paint1_linear_121_394" x1="18" y1="4" x2="18" y2="24.4281" gradientUnits="userSpaceOnUse">
<stop stop-color="#E61E6A"/>
<stop offset="1" stop-color="#3E7FE6"/>
</linearGradient>
</defs>
</svg>
