<svg width="35" height="35" viewBox="0 0 35 35" fill="none" xmlns="http://www.w3.org/2000/svg">
<path d="M34.5771 16.4646L29.998 11.9C29.9415 11.834 29.906 11.7528 29.8959 11.6666V2.91664C29.8959 2.52986 29.7422 2.15893 29.4687 1.88544C29.1952 1.61195 28.8243 1.45831 28.4375 1.45831H24.0625C23.6758 1.45831 23.3048 1.61195 23.0313 1.88544C22.7579 2.15893 22.6042 2.52986 22.6042 2.91664V3.61664C22.6045 3.68779 22.5839 3.75747 22.545 3.81707C22.5061 3.87667 22.4507 3.92359 22.3855 3.95206C22.3245 3.99102 22.2536 4.01172 22.1813 4.01172C22.1089 4.01172 22.0381 3.99102 21.9771 3.95206L18.5355 0.422889C18.3999 0.286201 18.2386 0.17771 18.0609 0.103672C17.8832 0.0296344 17.6926 -0.00848389 17.5 -0.00848389C17.3075 -0.00848389 17.1169 0.0296344 16.9392 0.103672C16.7615 0.17771 16.6002 0.286201 16.4646 0.422889L0.422957 16.4646C0.220602 16.6696 0.0835246 16.9301 0.0290206 17.213C-0.0254833 17.4959 0.00502895 17.7886 0.116707 18.0541C0.226112 18.3205 0.4119 18.5484 0.650659 18.7093C0.889417 18.8702 1.17046 18.9569 1.45837 18.9583H3.28129C3.37798 18.9583 3.47072 18.9967 3.53909 19.0651C3.60746 19.1335 3.64587 19.2262 3.64587 19.3229V33.5416C3.64587 33.9284 3.79952 34.2993 4.07301 34.5728C4.3465 34.8463 4.71743 35 5.10421 35H29.8959C30.2826 35 30.6536 34.8463 30.9271 34.5728C31.2006 34.2993 31.3542 33.9284 31.3542 33.5416V19.3229C31.3542 19.2262 31.3926 19.1335 31.461 19.0651C31.5294 18.9967 31.6221 18.9583 31.7188 18.9583H33.5417C33.8296 18.9569 34.1107 18.8702 34.3494 18.7093C34.5882 18.5484 34.774 18.3205 34.8834 18.0541C34.9951 17.7886 35.0256 17.4959 34.9711 17.213C34.9166 16.9301 34.7795 16.6696 34.5771 16.4646Z" fill="url(#paint0_linear_127_381)"/>
<defs>
<linearGradient id="paint0_linear_127_381" x1="17.5" y1="-0.00848389" x2="17.5" y2="35" gradientUnits="userSpaceOnUse">
<stop stop-color="#E61E6A"/>
<stop offset="1" stop-color="#3E7FE6"/>
</linearGradient>
</defs>
</svg>
