<svg width="108" height="14" viewBox="0 0 108 14" fill="none" xmlns="http://www.w3.org/2000/svg">
<path d="M0.9 13V0.399999H5.4C6.852 0.399999 8.052 0.675999 9 1.228C9.96 1.78 10.674 2.53 11.142 3.478C11.622 4.426 11.862 5.506 11.862 6.718C11.862 7.918 11.622 8.992 11.142 9.94C10.674 10.888 9.96 11.638 9 12.19C8.052 12.73 6.852 13 5.4 13H0.9ZM5.094 2.668H3.42V10.732H5.094C6.09 10.732 6.894 10.558 7.506 10.21C8.118 9.85 8.562 9.37 8.838 8.77C9.114 8.158 9.252 7.474 9.252 6.718C9.252 5.95 9.114 5.266 8.838 4.666C8.562 4.054 8.118 3.568 7.506 3.208C6.894 2.848 6.09 2.668 5.094 2.668ZM18.2309 13.234C17.2709 13.234 16.4249 13.012 15.6929 12.568C14.9609 12.124 14.3909 11.536 13.9829 10.804C13.5869 10.06 13.3889 9.238 13.3889 8.338C13.3889 7.438 13.5989 6.616 14.0189 5.872C14.4389 5.116 15.0089 4.516 15.7289 4.072C16.4609 3.628 17.2949 3.406 18.2309 3.406C19.1669 3.406 19.9889 3.628 20.6969 4.072C21.4169 4.516 21.9749 5.116 22.3709 5.872C22.7789 6.616 22.9829 7.438 22.9829 8.338C22.9829 8.47 22.9769 8.608 22.9649 8.752C22.9529 8.896 22.9349 9.046 22.9109 9.202H15.9089C16.0409 9.754 16.3049 10.204 16.7009 10.552C17.1089 10.9 17.6189 11.074 18.2309 11.074C18.7589 11.074 19.2149 10.954 19.5989 10.714C19.9949 10.474 20.3009 10.174 20.5169 9.814L22.4069 11.236C22.0349 11.824 21.4769 12.304 20.7329 12.676C19.9889 13.048 19.1549 13.234 18.2309 13.234ZM18.1949 5.494C17.6189 5.494 17.1269 5.668 16.7189 6.016C16.3109 6.364 16.0409 6.82 15.9089 7.384H20.5349C20.4029 6.868 20.1269 6.424 19.7069 6.052C19.2989 5.68 18.7949 5.494 18.1949 5.494ZM27.3208 13L23.4148 3.64H26.2948L28.1668 8.986C28.3348 9.466 28.4668 9.964 28.5628 10.48C28.6588 9.964 28.7908 9.466 28.9588 8.986L30.8308 3.64H33.6568L29.7688 13H27.3208ZM41.3079 13.234C40.3719 13.234 39.5019 13.066 38.6979 12.73C37.9059 12.394 37.2099 11.926 36.6099 11.326C36.0219 10.726 35.5599 10.036 35.2239 9.256C34.8999 8.464 34.7379 7.618 34.7379 6.718C34.7379 5.818 34.8939 4.972 35.2059 4.18C35.5299 3.388 35.9799 2.692 36.5559 2.092C37.1439 1.492 37.8399 1.024 38.6439 0.688C39.4479 0.339999 40.3359 0.165999 41.3079 0.165999C42.3399 0.165999 43.2219 0.327999 43.9539 0.651999C44.6979 0.975999 45.3519 1.474 45.9159 2.146L44.1339 3.694C43.3779 2.902 42.4359 2.506 41.3079 2.506C40.5039 2.506 39.8019 2.698 39.2019 3.082C38.6139 3.466 38.1579 3.976 37.8339 4.612C37.5099 5.248 37.3479 5.95 37.3479 6.718C37.3479 7.486 37.5099 8.188 37.8339 8.824C38.1579 9.448 38.6199 9.952 39.2199 10.336C39.8199 10.708 40.5339 10.894 41.3619 10.894C41.9739 10.894 42.5139 10.792 42.9819 10.588C43.4499 10.384 43.8699 10.078 44.2419 9.67L46.0779 11.236C45.5979 11.812 44.9559 12.292 44.1519 12.676C43.3599 13.048 42.4119 13.234 41.3079 13.234ZM51.9245 13.234C50.9645 13.234 50.1065 13.012 49.3505 12.568C48.5945 12.124 48.0005 11.536 47.5685 10.804C47.1485 10.06 46.9385 9.238 46.9385 8.338C46.9385 7.438 47.1485 6.616 47.5685 5.872C48.0005 5.128 48.5945 4.534 49.3505 4.09C50.1065 3.646 50.9645 3.424 51.9245 3.424C52.8965 3.424 53.7545 3.646 54.4985 4.09C55.2545 4.534 55.8425 5.128 56.2625 5.872C56.6945 6.616 56.9105 7.438 56.9105 8.338C56.9105 9.238 56.6945 10.06 56.2625 10.804C55.8425 11.536 55.2545 12.124 54.4985 12.568C53.7545 13.012 52.8965 13.234 51.9245 13.234ZM51.9245 11.02C52.4405 11.02 52.8905 10.9 53.2745 10.66C53.6585 10.408 53.9525 10.078 54.1565 9.67C54.3725 9.262 54.4805 8.818 54.4805 8.338C54.4805 7.846 54.3725 7.396 54.1565 6.988C53.9525 6.58 53.6585 6.256 53.2745 6.016C52.8905 5.764 52.4405 5.638 51.9245 5.638C51.4085 5.638 50.9585 5.764 50.5745 6.016C50.1905 6.256 49.8905 6.58 49.6745 6.988C49.4705 7.396 49.3685 7.846 49.3685 8.338C49.3685 8.818 49.4705 9.262 49.6745 9.67C49.8905 10.078 50.1905 10.408 50.5745 10.66C50.9585 10.9 51.4085 11.02 51.9245 11.02ZM58.886 13V3.64H61.28V5.008C61.772 3.952 62.726 3.424 64.142 3.424C64.814 3.424 65.42 3.58 65.96 3.892C66.5 4.204 66.926 4.648 67.238 5.224C67.55 5.8 67.706 6.484 67.706 7.276V13H65.276V7.87C65.276 7.054 65.09 6.466 64.718 6.106C64.346 5.734 63.86 5.548 63.26 5.548C62.744 5.548 62.288 5.734 61.892 6.106C61.508 6.466 61.316 7.054 61.316 7.87V13H58.886ZM69.9638 13V3.64H72.3578V5.008C72.8498 3.952 73.8038 3.424 75.2198 3.424C75.8918 3.424 76.4978 3.58 77.0378 3.892C77.5778 4.204 78.0038 4.648 78.3158 5.224C78.6278 5.8 78.7838 6.484 78.7838 7.276V13H76.3538V7.87C76.3538 7.054 76.1678 6.466 75.7958 6.106C75.4238 5.734 74.9378 5.548 74.3378 5.548C73.8218 5.548 73.3658 5.734 72.9698 6.106C72.5858 6.466 72.3938 7.054 72.3938 7.87V13H69.9638ZM85.5235 13.234C84.5635 13.234 83.7175 13.012 82.9855 12.568C82.2535 12.124 81.6835 11.536 81.2755 10.804C80.8795 10.06 80.6815 9.238 80.6815 8.338C80.6815 7.438 80.8915 6.616 81.3115 5.872C81.7315 5.116 82.3015 4.516 83.0215 4.072C83.7535 3.628 84.5875 3.406 85.5235 3.406C86.4595 3.406 87.2815 3.628 87.9895 4.072C88.7095 4.516 89.2675 5.116 89.6635 5.872C90.0715 6.616 90.2755 7.438 90.2755 8.338C90.2755 8.47 90.2695 8.608 90.2575 8.752C90.2455 8.896 90.2275 9.046 90.2035 9.202H83.2015C83.3335 9.754 83.5975 10.204 83.9935 10.552C84.4015 10.9 84.9115 11.074 85.5235 11.074C86.0515 11.074 86.5075 10.954 86.8915 10.714C87.2875 10.474 87.5935 10.174 87.8095 9.814L89.6995 11.236C89.3275 11.824 88.7695 12.304 88.0255 12.676C87.2815 13.048 86.4475 13.234 85.5235 13.234ZM85.4875 5.494C84.9115 5.494 84.4195 5.668 84.0115 6.016C83.6035 6.364 83.3335 6.82 83.2015 7.384H87.8275C87.6955 6.868 87.4195 6.424 86.9995 6.052C86.5915 5.68 86.0875 5.494 85.4875 5.494ZM96.5832 13.234C95.9112 13.234 95.2812 13.108 94.6932 12.856C94.1172 12.604 93.6072 12.256 93.1632 11.812C92.7192 11.356 92.3712 10.834 92.1192 10.246C91.8792 9.646 91.7592 9.004 91.7592 8.32C91.7592 7.408 91.9692 6.586 92.3892 5.854C92.8212 5.11 93.4092 4.516 94.1532 4.072C94.9092 3.628 95.7612 3.406 96.7092 3.406C97.5612 3.394 98.3232 3.544 98.9952 3.856C99.6672 4.168 100.201 4.6 100.597 5.152L98.7252 6.682C98.5092 6.358 98.2272 6.1 97.8792 5.908C97.5432 5.716 97.1652 5.62 96.7452 5.62C96.2292 5.62 95.7792 5.746 95.3952 5.998C95.0112 6.238 94.7112 6.562 94.4952 6.97C94.2912 7.378 94.1892 7.828 94.1892 8.32C94.1892 8.8 94.2972 9.25 94.5132 9.67C94.7412 10.078 95.0472 10.408 95.4312 10.66C95.8272 10.9 96.2832 11.02 96.7992 11.02C97.2672 11.02 97.6632 10.918 97.9872 10.714C98.3112 10.498 98.5932 10.228 98.8332 9.904L100.597 11.434C100.153 11.998 99.6012 12.442 98.9412 12.766C98.2932 13.078 97.5072 13.234 96.5832 13.234ZM106.005 13C105.081 13 104.373 12.772 103.881 12.316C103.389 11.86 103.143 11.122 103.143 10.102V5.71H101.829V3.64H103.143V1.75L105.573 1.498V3.64H107.553V5.71H105.573V9.976C105.573 10.552 105.825 10.84 106.329 10.84H107.337V13H106.005Z" fill="url(#paint0_linear_129_376)"/>
<defs>
<linearGradient id="paint0_linear_129_376" x1="0" y1="6.5" x2="145" y2="6.5" gradientUnits="userSpaceOnUse">
<stop stop-color="#E61E6A"/>
<stop offset="1" stop-color="#3E7FE6"/>
</linearGradient>
</defs>
</svg>
