<svg width="314" height="68" viewBox="0 0 314 68" fill="none" xmlns="http://www.w3.org/2000/svg">
<g filter="url(#filter0_d_85_385)">
<path d="M4 30C4 13.4315 17.4315 0 34 0H280C296.569 0 310 13.4315 310 30V30C310 46.5685 296.569 60 280 60H34C17.4315 60 4 46.5685 4 30V30Z" fill="url(#paint0_linear_85_385)"/>
</g>
<path d="M51.1551 42.8975V17.6975H60.1551C63.0591 17.6975 65.4591 18.2495 67.3551 19.3535C69.2751 20.4575 70.7031 21.9575 71.6391 23.8535C72.5991 25.7495 73.0791 27.9095 73.0791 30.3335C73.0791 32.7335 72.5991 34.8815 71.6391 36.7775C70.7031 38.6735 69.2751 40.1735 67.3551 41.2775C65.4591 42.3575 63.0591 42.8975 60.1551 42.8975H51.1551ZM59.5431 22.2335H56.1951V38.3615H59.5431C61.5351 38.3615 63.1431 38.0135 64.3671 37.3175C65.5911 36.5975 66.4791 35.6375 67.0311 34.4375C67.5831 33.2135 67.8591 31.8455 67.8591 30.3335C67.8591 28.7975 67.5831 27.4295 67.0311 26.2295C66.4791 25.0055 65.5911 24.0335 64.3671 23.3135C63.1431 22.5935 61.5351 22.2335 59.5431 22.2335ZM85.8169 43.3655C83.8969 43.3655 82.2049 42.9215 80.7409 42.0335C79.2769 41.1455 78.1369 39.9695 77.3209 38.5055C76.5289 37.0175 76.1329 35.3735 76.1329 33.5735C76.1329 31.7735 76.5529 30.1295 77.3929 28.6415C78.2329 27.1295 79.3729 25.9295 80.8129 25.0415C82.2769 24.1535 83.9449 23.7095 85.8169 23.7095C87.6889 23.7095 89.3329 24.1535 90.7489 25.0415C92.1889 25.9295 93.3049 27.1295 94.0969 28.6415C94.9129 30.1295 95.3209 31.7735 95.3209 33.5735C95.3209 33.8375 95.3089 34.1135 95.2849 34.4015C95.2609 34.6895 95.2249 34.9895 95.1769 35.3015H81.1729C81.4369 36.4055 81.9649 37.3055 82.7569 38.0015C83.5729 38.6975 84.5929 39.0455 85.8169 39.0455C86.8729 39.0455 87.7849 38.8055 88.5529 38.3255C89.3449 37.8455 89.9569 37.2455 90.3889 36.5255L94.1689 39.3695C93.4249 40.5455 92.3089 41.5055 90.8209 42.2495C89.3329 42.9935 87.6649 43.3655 85.8169 43.3655ZM85.7449 27.8855C84.5929 27.8855 83.6089 28.2335 82.7929 28.9295C81.9769 29.6255 81.4369 30.5375 81.1729 31.6655H90.4249C90.1609 30.6335 89.6089 29.7455 88.7689 29.0015C87.9529 28.2575 86.9449 27.8855 85.7449 27.8855ZM103.997 42.8975L96.1846 24.1775H101.945L105.689 34.8695C106.025 35.8295 106.289 36.8255 106.481 37.8575C106.673 36.8255 106.937 35.8295 107.273 34.8695L111.017 24.1775H116.669L108.893 42.8975H103.997ZM131.971 43.3655C130.099 43.3655 128.359 43.0295 126.751 42.3575C125.167 41.6855 123.775 40.7495 122.575 39.5495C121.399 38.3495 120.475 36.9695 119.803 35.4095C119.155 33.8255 118.831 32.1335 118.831 30.3335C118.831 28.5335 119.143 26.8415 119.767 25.2575C120.415 23.6735 121.315 22.2815 122.467 21.0815C123.643 19.8815 125.035 18.9455 126.643 18.2735C128.251 17.5775 130.027 17.2295 131.971 17.2295C134.035 17.2295 135.799 17.5535 137.263 18.2015C138.751 18.8495 140.059 19.8455 141.187 21.1895L137.623 24.2855C136.111 22.7015 134.227 21.9095 131.971 21.9095C130.363 21.9095 128.959 22.2935 127.759 23.0615C126.583 23.8295 125.671 24.8495 125.023 26.1215C124.375 27.3935 124.051 28.7975 124.051 30.3335C124.051 31.8695 124.375 33.2735 125.023 34.5455C125.671 35.7935 126.595 36.8015 127.795 37.5695C128.995 38.3135 130.423 38.6855 132.079 38.6855C133.303 38.6855 134.383 38.4815 135.319 38.0735C136.255 37.6655 137.095 37.0535 137.839 36.2375L141.511 39.3695C140.551 40.5215 139.267 41.4815 137.659 42.2495C136.075 42.9935 134.179 43.3655 131.971 43.3655ZM153.204 43.3655C151.284 43.3655 149.568 42.9215 148.056 42.0335C146.544 41.1455 145.356 39.9695 144.492 38.5055C143.652 37.0175 143.232 35.3735 143.232 33.5735C143.232 31.7735 143.652 30.1295 144.492 28.6415C145.356 27.1535 146.544 25.9655 148.056 25.0775C149.568 24.1895 151.284 23.7455 153.204 23.7455C155.148 23.7455 156.864 24.1895 158.352 25.0775C159.864 25.9655 161.04 27.1535 161.88 28.6415C162.744 30.1295 163.176 31.7735 163.176 33.5735C163.176 35.3735 162.744 37.0175 161.88 38.5055C161.04 39.9695 159.864 41.1455 158.352 42.0335C156.864 42.9215 155.148 43.3655 153.204 43.3655ZM153.204 38.9375C154.236 38.9375 155.136 38.6975 155.904 38.2175C156.672 37.7135 157.26 37.0535 157.668 36.2375C158.1 35.4215 158.316 34.5335 158.316 33.5735C158.316 32.5895 158.1 31.6895 157.668 30.8735C157.26 30.0575 156.672 29.4095 155.904 28.9295C155.136 28.4255 154.236 28.1735 153.204 28.1735C152.172 28.1735 151.272 28.4255 150.504 28.9295C149.736 29.4095 149.136 30.0575 148.704 30.8735C148.296 31.6895 148.092 32.5895 148.092 33.5735C148.092 34.5335 148.296 35.4215 148.704 36.2375C149.136 37.0535 149.736 37.7135 150.504 38.2175C151.272 38.6975 152.172 38.9375 153.204 38.9375ZM167.127 42.8975V24.1775H171.915V26.9135C172.899 24.8015 174.807 23.7455 177.639 23.7455C178.983 23.7455 180.195 24.0575 181.275 24.6815C182.355 25.3055 183.207 26.1935 183.831 27.3455C184.455 28.4975 184.767 29.8655 184.767 31.4495V42.8975H179.907V32.6375C179.907 31.0055 179.535 29.8295 178.791 29.1095C178.047 28.3655 177.075 27.9935 175.875 27.9935C174.843 27.9935 173.931 28.3655 173.139 29.1095C172.371 29.8295 171.987 31.0055 171.987 32.6375V42.8975H167.127ZM189.283 42.8975V24.1775H194.071V26.9135C195.055 24.8015 196.963 23.7455 199.795 23.7455C201.139 23.7455 202.351 24.0575 203.431 24.6815C204.511 25.3055 205.363 26.1935 205.987 27.3455C206.611 28.4975 206.923 29.8655 206.923 31.4495V42.8975H202.063V32.6375C202.063 31.0055 201.691 29.8295 200.947 29.1095C200.203 28.3655 199.231 27.9935 198.031 27.9935C196.999 27.9935 196.087 28.3655 195.295 29.1095C194.527 29.8295 194.143 31.0055 194.143 32.6375V42.8975H189.283ZM220.402 43.3655C218.482 43.3655 216.79 42.9215 215.326 42.0335C213.862 41.1455 212.722 39.9695 211.906 38.5055C211.114 37.0175 210.718 35.3735 210.718 33.5735C210.718 31.7735 211.138 30.1295 211.978 28.6415C212.818 27.1295 213.958 25.9295 215.398 25.0415C216.862 24.1535 218.53 23.7095 220.402 23.7095C222.274 23.7095 223.918 24.1535 225.334 25.0415C226.774 25.9295 227.89 27.1295 228.682 28.6415C229.498 30.1295 229.906 31.7735 229.906 33.5735C229.906 33.8375 229.894 34.1135 229.87 34.4015C229.846 34.6895 229.81 34.9895 229.762 35.3015H215.758C216.022 36.4055 216.55 37.3055 217.342 38.0015C218.158 38.6975 219.178 39.0455 220.402 39.0455C221.458 39.0455 222.37 38.8055 223.138 38.3255C223.93 37.8455 224.542 37.2455 224.974 36.5255L228.754 39.3695C228.01 40.5455 226.894 41.5055 225.406 42.2495C223.918 42.9935 222.25 43.3655 220.402 43.3655ZM220.33 27.8855C219.178 27.8855 218.194 28.2335 217.378 28.9295C216.562 29.6255 216.022 30.5375 215.758 31.6655H225.01C224.746 30.6335 224.194 29.7455 223.354 29.0015C222.538 28.2575 221.53 27.8855 220.33 27.8855ZM242.522 43.3655C241.178 43.3655 239.918 43.1135 238.742 42.6095C237.59 42.1055 236.57 41.4095 235.682 40.5215C234.794 39.6095 234.098 38.5655 233.594 37.3895C233.114 36.1895 232.874 34.9055 232.874 33.5375C232.874 31.7135 233.294 30.0695 234.134 28.6055C234.998 27.1175 236.174 25.9295 237.662 25.0415C239.174 24.1535 240.878 23.7095 242.774 23.7095C244.478 23.6855 246.002 23.9855 247.346 24.6095C248.69 25.2335 249.758 26.0975 250.55 27.2015L246.806 30.2615C246.374 29.6135 245.81 29.0975 245.114 28.7135C244.442 28.3295 243.686 28.1375 242.846 28.1375C241.814 28.1375 240.914 28.3895 240.146 28.8935C239.378 29.3735 238.778 30.0215 238.346 30.8375C237.938 31.6535 237.734 32.5535 237.734 33.5375C237.734 34.4975 237.95 35.3975 238.382 36.2375C238.838 37.0535 239.45 37.7135 240.218 38.2175C241.01 38.6975 241.922 38.9375 242.954 38.9375C243.89 38.9375 244.682 38.7335 245.33 38.3255C245.978 37.8935 246.542 37.3535 247.022 36.7055L250.55 39.7655C249.662 40.8935 248.558 41.7815 247.238 42.4295C245.942 43.0535 244.37 43.3655 242.522 43.3655ZM261.364 42.8975C259.516 42.8975 258.1 42.4415 257.116 41.5295C256.132 40.6175 255.64 39.1415 255.64 37.1015V28.3175H253.012V24.1775H255.64V20.3975L260.5 19.8935V24.1775H264.46V28.3175H260.5V36.8495C260.5 38.0015 261.004 38.5775 262.012 38.5775H264.028V42.8975H261.364Z" fill="url(#paint1_linear_85_385)"/>
<defs>
<filter id="filter0_d_85_385" x="0" y="0" width="314" height="68" filterUnits="userSpaceOnUse" color-interpolation-filters="sRGB">
<feFlood flood-opacity="0" result="BackgroundImageFix"/>
<feColorMatrix in="SourceAlpha" type="matrix" values="0 0 0 0 0 0 0 0 0 0 0 0 0 0 0 0 0 0 127 0" result="hardAlpha"/>
<feOffset dy="4"/>
<feGaussianBlur stdDeviation="2"/>
<feComposite in2="hardAlpha" operator="out"/>
<feColorMatrix type="matrix" values="0 0 0 0 0 0 0 0 0 0 0 0 0 0 0 0 0 0 0.25 0"/>
<feBlend mode="normal" in2="BackgroundImageFix" result="effect1_dropShadow_85_385"/>
<feBlend mode="normal" in="SourceGraphic" in2="effect1_dropShadow_85_385" result="shape"/>
</filter>
<linearGradient id="paint0_linear_85_385" x1="4" y1="30" x2="310" y2="30" gradientUnits="userSpaceOnUse">
<stop stop-color="#E61E6A"/>
<stop offset="1" stop-color="#3E7FE6"/>
</linearGradient>
<linearGradient id="paint1_linear_85_385" x1="34.4355" y1="30" x2="279.565" y2="30" gradientUnits="userSpaceOnUse">
<stop stop-color="white"/>
</linearGradient>
</defs>
</svg>
