<svg width="288" height="68" viewBox="0 0 288 68" fill="none" xmlns="http://www.w3.org/2000/svg">
<g filter="url(#filter0_d_85_385)">
<path d="M4 30C4 13.4315 17.4315 0 34 0H254C270.569 0 284 13.4315 284 30V30C284 46.5685 270.569 60 254 60H34C17.4315 60 4 46.5685 4 30V30Z" fill="url(#paint0_linear_85_385)"/>
</g>
<path d="M38.1551 42.8975V17.6975H47.1551C50.0591 17.6975 52.4591 18.2495 54.3551 19.3535C56.2751 20.4575 57.7031 21.9575 58.6391 23.8535C59.5991 25.7495 60.0791 27.9095 60.0791 30.3335C60.0791 32.7335 59.5991 34.8815 58.6391 36.7775C57.7031 38.6735 56.2751 40.1735 54.3551 41.2775C52.4591 42.3575 50.0591 42.8975 47.1551 42.8975H38.1551ZM46.5431 22.2335H43.1951V38.3615H46.5431C48.5351 38.3615 50.1431 38.0135 51.3671 37.3175C52.5911 36.5975 53.4791 35.6375 54.0311 34.4375C54.5831 33.2135 54.8591 31.8455 54.8591 30.3335C54.8591 28.7975 54.5831 27.4295 54.0311 26.2295C53.4791 25.0055 52.5911 24.0335 51.3671 23.3135C50.1431 22.5935 48.5351 22.2335 46.5431 22.2335ZM72.8169 43.3655C70.8969 43.3655 69.2049 42.9215 67.7409 42.0335C66.2769 41.1455 65.1369 39.9695 64.3209 38.5055C63.5289 37.0175 63.1329 35.3735 63.1329 33.5735C63.1329 31.7735 63.5529 30.1295 64.3929 28.6415C65.2329 27.1295 66.3729 25.9295 67.8129 25.0415C69.2769 24.1535 70.9449 23.7095 72.8169 23.7095C74.6889 23.7095 76.3329 24.1535 77.7489 25.0415C79.1889 25.9295 80.3049 27.1295 81.0969 28.6415C81.9129 30.1295 82.3209 31.7735 82.3209 33.5735C82.3209 33.8375 82.3089 34.1135 82.2849 34.4015C82.2609 34.6895 82.2249 34.9895 82.1769 35.3015H68.1729C68.4369 36.4055 68.9649 37.3055 69.7569 38.0015C70.5729 38.6975 71.5929 39.0455 72.8169 39.0455C73.8729 39.0455 74.7849 38.8055 75.5529 38.3255C76.3449 37.8455 76.9569 37.2455 77.3889 36.5255L81.1689 39.3695C80.4249 40.5455 79.3089 41.5055 77.8209 42.2495C76.3329 42.9935 74.6649 43.3655 72.8169 43.3655ZM72.7449 27.8855C71.5929 27.8855 70.6089 28.2335 69.7929 28.9295C68.9769 29.6255 68.4369 30.5375 68.1729 31.6655H77.4249C77.1609 30.6335 76.6089 29.7455 75.7689 29.0015C74.9529 28.2575 73.9449 27.8855 72.7449 27.8855ZM90.9966 42.8975L83.1846 24.1775H88.9446L92.6886 34.8695C93.0246 35.8295 93.2886 36.8255 93.4806 37.8575C93.6726 36.8255 93.9366 35.8295 94.2726 34.8695L98.0166 24.1775H103.669L95.8926 42.8975H90.9966ZM118.971 43.3655C117.099 43.3655 115.359 43.0295 113.751 42.3575C112.167 41.6855 110.775 40.7495 109.575 39.5495C108.399 38.3495 107.475 36.9695 106.803 35.4095C106.155 33.8255 105.831 32.1335 105.831 30.3335C105.831 28.5335 106.143 26.8415 106.767 25.2575C107.415 23.6735 108.315 22.2815 109.467 21.0815C110.643 19.8815 112.035 18.9455 113.643 18.2735C115.251 17.5775 117.027 17.2295 118.971 17.2295C121.035 17.2295 122.799 17.5535 124.263 18.2015C125.751 18.8495 127.059 19.8455 128.187 21.1895L124.623 24.2855C123.111 22.7015 121.227 21.9095 118.971 21.9095C117.363 21.9095 115.959 22.2935 114.759 23.0615C113.583 23.8295 112.671 24.8495 112.023 26.1215C111.375 27.3935 111.051 28.7975 111.051 30.3335C111.051 31.8695 111.375 33.2735 112.023 34.5455C112.671 35.7935 113.595 36.8015 114.795 37.5695C115.995 38.3135 117.423 38.6855 119.079 38.6855C120.303 38.6855 121.383 38.4815 122.319 38.0735C123.255 37.6655 124.095 37.0535 124.839 36.2375L128.511 39.3695C127.551 40.5215 126.267 41.4815 124.659 42.2495C123.075 42.9935 121.179 43.3655 118.971 43.3655ZM140.204 43.3655C138.284 43.3655 136.568 42.9215 135.056 42.0335C133.544 41.1455 132.356 39.9695 131.492 38.5055C130.652 37.0175 130.232 35.3735 130.232 33.5735C130.232 31.7735 130.652 30.1295 131.492 28.6415C132.356 27.1535 133.544 25.9655 135.056 25.0775C136.568 24.1895 138.284 23.7455 140.204 23.7455C142.148 23.7455 143.864 24.1895 145.352 25.0775C146.864 25.9655 148.04 27.1535 148.88 28.6415C149.744 30.1295 150.176 31.7735 150.176 33.5735C150.176 35.3735 149.744 37.0175 148.88 38.5055C148.04 39.9695 146.864 41.1455 145.352 42.0335C143.864 42.9215 142.148 43.3655 140.204 43.3655ZM140.204 38.9375C141.236 38.9375 142.136 38.6975 142.904 38.2175C143.672 37.7135 144.26 37.0535 144.668 36.2375C145.1 35.4215 145.316 34.5335 145.316 33.5735C145.316 32.5895 145.1 31.6895 144.668 30.8735C144.26 30.0575 143.672 29.4095 142.904 28.9295C142.136 28.4255 141.236 28.1735 140.204 28.1735C139.172 28.1735 138.272 28.4255 137.504 28.9295C136.736 29.4095 136.136 30.0575 135.704 30.8735C135.296 31.6895 135.092 32.5895 135.092 33.5735C135.092 34.5335 135.296 35.4215 135.704 36.2375C136.136 37.0535 136.736 37.7135 137.504 38.2175C138.272 38.6975 139.172 38.9375 140.204 38.9375ZM154.127 42.8975V24.1775H158.915V26.9135C159.899 24.8015 161.807 23.7455 164.639 23.7455C165.983 23.7455 167.195 24.0575 168.275 24.6815C169.355 25.3055 170.207 26.1935 170.831 27.3455C171.455 28.4975 171.767 29.8655 171.767 31.4495V42.8975H166.907V32.6375C166.907 31.0055 166.535 29.8295 165.791 29.1095C165.047 28.3655 164.075 27.9935 162.875 27.9935C161.843 27.9935 160.931 28.3655 160.139 29.1095C159.371 29.8295 158.987 31.0055 158.987 32.6375V42.8975H154.127ZM176.283 42.8975V24.1775H181.071V26.9135C182.055 24.8015 183.963 23.7455 186.795 23.7455C188.139 23.7455 189.351 24.0575 190.431 24.6815C191.511 25.3055 192.363 26.1935 192.987 27.3455C193.611 28.4975 193.923 29.8655 193.923 31.4495V42.8975H189.063V32.6375C189.063 31.0055 188.691 29.8295 187.947 29.1095C187.203 28.3655 186.231 27.9935 185.031 27.9935C183.999 27.9935 183.087 28.3655 182.295 29.1095C181.527 29.8295 181.143 31.0055 181.143 32.6375V42.8975H176.283ZM207.402 43.3655C205.482 43.3655 203.79 42.9215 202.326 42.0335C200.862 41.1455 199.722 39.9695 198.906 38.5055C198.114 37.0175 197.718 35.3735 197.718 33.5735C197.718 31.7735 198.138 30.1295 198.978 28.6415C199.818 27.1295 200.958 25.9295 202.398 25.0415C203.862 24.1535 205.53 23.7095 207.402 23.7095C209.274 23.7095 210.918 24.1535 212.334 25.0415C213.774 25.9295 214.89 27.1295 215.682 28.6415C216.498 30.1295 216.906 31.7735 216.906 33.5735C216.906 33.8375 216.894 34.1135 216.87 34.4015C216.846 34.6895 216.81 34.9895 216.762 35.3015H202.758C203.022 36.4055 203.55 37.3055 204.342 38.0015C205.158 38.6975 206.178 39.0455 207.402 39.0455C208.458 39.0455 209.37 38.8055 210.138 38.3255C210.93 37.8455 211.542 37.2455 211.974 36.5255L215.754 39.3695C215.01 40.5455 213.894 41.5055 212.406 42.2495C210.918 42.9935 209.25 43.3655 207.402 43.3655ZM207.33 27.8855C206.178 27.8855 205.194 28.2335 204.378 28.9295C203.562 29.6255 203.022 30.5375 202.758 31.6655H212.01C211.746 30.6335 211.194 29.7455 210.354 29.0015C209.538 28.2575 208.53 27.8855 207.33 27.8855ZM229.522 43.3655C228.178 43.3655 226.918 43.1135 225.742 42.6095C224.59 42.1055 223.57 41.4095 222.682 40.5215C221.794 39.6095 221.098 38.5655 220.594 37.3895C220.114 36.1895 219.874 34.9055 219.874 33.5375C219.874 31.7135 220.294 30.0695 221.134 28.6055C221.998 27.1175 223.174 25.9295 224.662 25.0415C226.174 24.1535 227.878 23.7095 229.774 23.7095C231.478 23.6855 233.002 23.9855 234.346 24.6095C235.69 25.2335 236.758 26.0975 237.55 27.2015L233.806 30.2615C233.374 29.6135 232.81 29.0975 232.114 28.7135C231.442 28.3295 230.686 28.1375 229.846 28.1375C228.814 28.1375 227.914 28.3895 227.146 28.8935C226.378 29.3735 225.778 30.0215 225.346 30.8375C224.938 31.6535 224.734 32.5535 224.734 33.5375C224.734 34.4975 224.95 35.3975 225.382 36.2375C225.838 37.0535 226.45 37.7135 227.218 38.2175C228.01 38.6975 228.922 38.9375 229.954 38.9375C230.89 38.9375 231.682 38.7335 232.33 38.3255C232.978 37.8935 233.542 37.3535 234.022 36.7055L237.55 39.7655C236.662 40.8935 235.558 41.7815 234.238 42.4295C232.942 43.0535 231.37 43.3655 229.522 43.3655ZM248.364 42.8975C246.516 42.8975 245.1 42.4415 244.116 41.5295C243.132 40.6175 242.64 39.1415 242.64 37.1015V28.3175H240.012V24.1775H242.64V20.3975L247.5 19.8935V24.1775H251.46V28.3175H247.5V36.8495C247.5 38.0015 248.004 38.5775 249.012 38.5775H251.028V42.8975H248.364Z" fill="url(#paint1_linear_85_385)"/>
<defs>
<filter id="filter0_d_85_385" x="0" y="0" width="288" height="68" filterUnits="userSpaceOnUse" color-interpolation-filters="sRGB">
<feFlood flood-opacity="0" result="BackgroundImageFix"/>
<feColorMatrix in="SourceAlpha" type="matrix" values="0 0 0 0 0 0 0 0 0 0 0 0 0 0 0 0 0 0 127 0" result="hardAlpha"/>
<feOffset dy="4"/>
<feGaussianBlur stdDeviation="2"/>
<feComposite in2="hardAlpha" operator="out"/>
<feColorMatrix type="matrix" values="0 0 0 0 0 0 0 0 0 0 0 0 0 0 0 0 0 0 0.25 0"/>
<feBlend mode="normal" in2="BackgroundImageFix" result="effect1_dropShadow_85_385"/>
<feBlend mode="normal" in="SourceGraphic" in2="effect1_dropShadow_85_385" result="shape"/>
</filter>
<linearGradient id="paint0_linear_85_385" x1="4" y1="30" x2="284" y2="30" gradientUnits="userSpaceOnUse">
<stop stop-color="#E61E6A"/>
<stop offset="1" stop-color="#3E7FE6"/>
</linearGradient>
<linearGradient id="paint1_linear_85_385" x1="31.8495" y1="30" x2="256.151" y2="30" gradientUnits="userSpaceOnUse">
<stop stop-color="white"/>
</linearGradient>
</defs>
</svg>
