<svg width="63" height="15" viewBox="0 0 63 15" fill="none" xmlns="http://www.w3.org/2000/svg">
<path d="M0.7 14V4.2H4.2C5.32933 4.2 6.26267 4.41467 7 4.844C7.74667 5.27333 8.302 5.85667 8.666 6.594C9.03933 7.33133 9.226 8.17133 9.226 9.114C9.226 10.0473 9.03933 10.8827 8.666 11.62C8.302 12.3573 7.74667 12.9407 7 13.37C6.26267 13.79 5.32933 14 4.2 14H0.7ZM3.962 5.964H2.66V12.236H3.962C4.73667 12.236 5.362 12.1007 5.838 11.83C6.314 11.55 6.65933 11.1767 6.874 10.71C7.08867 10.234 7.196 9.702 7.196 9.114C7.196 8.51667 7.08867 7.98467 6.874 7.518C6.65933 7.042 6.314 6.664 5.838 6.384C5.362 6.104 4.73667 5.964 3.962 5.964ZM14.1796 14.182C13.4329 14.182 12.7749 14.0093 12.2056 13.664C11.6363 13.3187 11.1929 12.8613 10.8756 12.292C10.5676 11.7133 10.4136 11.074 10.4136 10.374C10.4136 9.674 10.5769 9.03467 10.9036 8.456C11.2303 7.868 11.6736 7.40133 12.2336 7.056C12.8029 6.71067 13.4516 6.538 14.1796 6.538C14.9076 6.538 15.5469 6.71067 16.0976 7.056C16.6576 7.40133 17.0916 7.868 17.3996 8.456C17.7169 9.03467 17.8756 9.674 17.8756 10.374C17.8756 10.4767 17.8709 10.584 17.8616 10.696C17.8523 10.808 17.8383 10.9247 17.8196 11.046H12.3736C12.4763 11.4753 12.6816 11.8253 12.9896 12.096C13.3069 12.3667 13.7036 12.502 14.1796 12.502C14.5903 12.502 14.9449 12.4087 15.2436 12.222C15.5516 12.0353 15.7896 11.802 15.9576 11.522L17.4276 12.628C17.1383 13.0853 16.7043 13.4587 16.1256 13.748C15.5469 14.0373 14.8983 14.182 14.1796 14.182ZM14.1516 8.162C13.7036 8.162 13.3209 8.29733 13.0036 8.568C12.6863 8.83867 12.4763 9.19333 12.3736 9.632H15.9716C15.8689 9.23067 15.6543 8.88533 15.3276 8.596C15.0103 8.30667 14.6183 8.162 14.1516 8.162ZM21.2495 14L18.2115 6.72H20.4515L21.9075 10.878C22.0382 11.2513 22.1408 11.6387 22.2155 12.04C22.2902 11.6387 22.3928 11.2513 22.5235 10.878L23.9795 6.72H26.1775L23.1535 14H21.2495ZM32.1284 14.182C31.4004 14.182 30.7237 14.0513 30.0984 13.79C29.4824 13.5287 28.941 13.1647 28.4744 12.698C28.017 12.2313 27.6577 11.6947 27.3964 11.088C27.1444 10.472 27.0184 9.814 27.0184 9.114C27.0184 8.414 27.1397 7.756 27.3824 7.14C27.6344 6.524 27.9844 5.98267 28.4324 5.516C28.8897 5.04933 29.431 4.68533 30.0564 4.424C30.6817 4.15333 31.3724 4.018 32.1284 4.018C32.931 4.018 33.617 4.144 34.1864 4.396C34.765 4.648 35.2737 5.03533 35.7124 5.558L34.3264 6.762C33.7384 6.146 33.0057 5.838 32.1284 5.838C31.503 5.838 30.957 5.98733 30.4904 6.286C30.033 6.58467 29.6784 6.98133 29.4264 7.476C29.1744 7.97067 29.0484 8.51667 29.0484 9.114C29.0484 9.71133 29.1744 10.2573 29.4264 10.752C29.6784 11.2373 30.0377 11.6293 30.5044 11.928C30.971 12.2173 31.5264 12.362 32.1704 12.362C32.6464 12.362 33.0664 12.2827 33.4304 12.124C33.7944 11.9653 34.121 11.7273 34.4104 11.41L35.8384 12.628C35.465 13.076 34.9657 13.4493 34.3404 13.748C33.7244 14.0373 32.987 14.182 32.1284 14.182ZM40.3857 14.182C39.6391 14.182 38.9717 14.0093 38.3837 13.664C37.7957 13.3187 37.3337 12.8613 36.9977 12.292C36.6711 11.7133 36.5077 11.074 36.5077 10.374C36.5077 9.674 36.6711 9.03467 36.9977 8.456C37.3337 7.87733 37.7957 7.41533 38.3837 7.07C38.9717 6.72467 39.6391 6.552 40.3857 6.552C41.1417 6.552 41.8091 6.72467 42.3877 7.07C42.9757 7.41533 43.4331 7.87733 43.7597 8.456C44.0957 9.03467 44.2637 9.674 44.2637 10.374C44.2637 11.074 44.0957 11.7133 43.7597 12.292C43.4331 12.8613 42.9757 13.3187 42.3877 13.664C41.8091 14.0093 41.1417 14.182 40.3857 14.182ZM40.3857 12.46C40.7871 12.46 41.1371 12.3667 41.4357 12.18C41.7344 11.984 41.9631 11.7273 42.1217 11.41C42.2897 11.0927 42.3737 10.7473 42.3737 10.374C42.3737 9.99133 42.2897 9.64133 42.1217 9.324C41.9631 9.00667 41.7344 8.75467 41.4357 8.568C41.1371 8.372 40.7871 8.274 40.3857 8.274C39.9844 8.274 39.6344 8.372 39.3357 8.568C39.0371 8.75467 38.8037 9.00667 38.6357 9.324C38.4771 9.64133 38.3977 9.99133 38.3977 10.374C38.3977 10.7473 38.4771 11.0927 38.6357 11.41C38.8037 11.7273 39.0371 11.984 39.3357 12.18C39.6344 12.3667 39.9844 12.46 40.3857 12.46ZM45.8002 14V6.72H47.6622V7.784C48.0449 6.96267 48.7869 6.552 49.8882 6.552C50.4109 6.552 50.8822 6.67333 51.3022 6.916C51.7222 7.15867 52.0536 7.504 52.2962 7.952C52.5389 8.4 52.6602 8.932 52.6602 9.548V14H50.7702V10.01C50.7702 9.37533 50.6256 8.918 50.3362 8.638C50.0469 8.34867 49.6689 8.204 49.2022 8.204C48.8009 8.204 48.4462 8.34867 48.1382 8.638C47.8396 8.918 47.6902 9.37533 47.6902 10.01V14H45.8002Z" fill="url(#paint0_linear_7_36)"/>
<defs>
<linearGradient id="paint0_linear_7_36" x1="0" y1="7" x2="74.8868" y2="7" gradientUnits="userSpaceOnUse">
<stop stop-color="#E61E6A"/>
<stop offset="1" stop-color="#3E7FE6"/>
</linearGradient>
</defs>
</svg>
