<svg width="216" height="37" viewBox="0 0 216 37" fill="none" xmlns="http://www.w3.org/2000/svg">
<path d="M1.8 36V10.8H10.8C13.704 10.8 16.104 11.352 18 12.456C19.92 13.56 21.348 15.06 22.284 16.956C23.244 18.852 23.724 21.012 23.724 23.436C23.724 25.836 23.244 27.984 22.284 29.88C21.348 31.776 19.92 33.276 18 34.38C16.104 35.46 13.704 36 10.8 36H1.8ZM10.188 15.336H6.84V31.464H10.188C12.18 31.464 13.788 31.116 15.012 30.42C16.236 29.7 17.124 28.74 17.676 27.54C18.228 26.316 18.504 24.948 18.504 23.436C18.504 21.9 18.228 20.532 17.676 19.332C17.124 18.108 16.236 17.136 15.012 16.416C13.788 15.696 12.18 15.336 10.188 15.336ZM36.4618 36.468C34.5418 36.468 32.8498 36.024 31.3858 35.136C29.9218 34.248 28.7818 33.072 27.9658 31.608C27.1738 30.12 26.7778 28.476 26.7778 26.676C26.7778 24.876 27.1978 23.232 28.0378 21.744C28.8778 20.232 30.0178 19.032 31.4578 18.144C32.9218 17.256 34.5898 16.812 36.4618 16.812C38.3338 16.812 39.9778 17.256 41.3938 18.144C42.8338 19.032 43.9498 20.232 44.7418 21.744C45.5578 23.232 45.9658 24.876 45.9658 26.676C45.9658 26.94 45.9538 27.216 45.9298 27.504C45.9058 27.792 45.8698 28.092 45.8218 28.404H31.8178C32.0818 29.508 32.6098 30.408 33.4018 31.104C34.2178 31.8 35.2378 32.148 36.4618 32.148C37.5178 32.148 38.4298 31.908 39.1978 31.428C39.9898 30.948 40.6018 30.348 41.0338 29.628L44.8138 32.472C44.0698 33.648 42.9538 34.608 41.4658 35.352C39.9778 36.096 38.3098 36.468 36.4618 36.468ZM36.3898 20.988C35.2378 20.988 34.2538 21.336 33.4378 22.032C32.6218 22.728 32.0818 23.64 31.8178 24.768H41.0698C40.8058 23.736 40.2538 22.848 39.4138 22.104C38.5978 21.36 37.5898 20.988 36.3898 20.988ZM54.6415 36L46.8295 17.28H52.5895L56.3335 27.972C56.6695 28.932 56.9335 29.928 57.1255 30.96C57.3175 29.928 57.5815 28.932 57.9175 27.972L61.6615 17.28H67.3135L59.5375 36H54.6415ZM82.6158 36.468C80.7438 36.468 79.0038 36.132 77.3958 35.46C75.8118 34.788 74.4198 33.852 73.2198 32.652C72.0438 31.452 71.1198 30.072 70.4478 28.512C69.7998 26.928 69.4758 25.236 69.4758 23.436C69.4758 21.636 69.7878 19.944 70.4118 18.36C71.0598 16.776 71.9598 15.384 73.1118 14.184C74.2878 12.984 75.6798 12.048 77.2878 11.376C78.8958 10.68 80.6718 10.332 82.6158 10.332C84.6798 10.332 86.4438 10.656 87.9078 11.304C89.3958 11.952 90.7038 12.948 91.8318 14.292L88.2678 17.388C86.7558 15.804 84.8718 15.012 82.6158 15.012C81.0078 15.012 79.6038 15.396 78.4038 16.164C77.2278 16.932 76.3158 17.952 75.6678 19.224C75.0198 20.496 74.6958 21.9 74.6958 23.436C74.6958 24.972 75.0198 26.376 75.6678 27.648C76.3158 28.896 77.2398 29.904 78.4398 30.672C79.6398 31.416 81.0678 31.788 82.7238 31.788C83.9478 31.788 85.0278 31.584 85.9638 31.176C86.8998 30.768 87.7398 30.156 88.4838 29.34L92.1558 32.472C91.1958 33.624 89.9118 34.584 88.3038 35.352C86.7198 36.096 84.8238 36.468 82.6158 36.468ZM103.849 36.468C101.929 36.468 100.213 36.024 98.701 35.136C97.189 34.248 96.001 33.072 95.137 31.608C94.297 30.12 93.877 28.476 93.877 26.676C93.877 24.876 94.297 23.232 95.137 21.744C96.001 20.256 97.189 19.068 98.701 18.18C100.213 17.292 101.929 16.848 103.849 16.848C105.793 16.848 107.509 17.292 108.997 18.18C110.509 19.068 111.685 20.256 112.525 21.744C113.389 23.232 113.821 24.876 113.821 26.676C113.821 28.476 113.389 30.12 112.525 31.608C111.685 33.072 110.509 34.248 108.997 35.136C107.509 36.024 105.793 36.468 103.849 36.468ZM103.849 32.04C104.881 32.04 105.781 31.8 106.549 31.32C107.317 30.816 107.905 30.156 108.313 29.34C108.745 28.524 108.961 27.636 108.961 26.676C108.961 25.692 108.745 24.792 108.313 23.976C107.905 23.16 107.317 22.512 106.549 22.032C105.781 21.528 104.881 21.276 103.849 21.276C102.817 21.276 101.917 21.528 101.149 22.032C100.381 22.512 99.781 23.16 99.349 23.976C98.941 24.792 98.737 25.692 98.737 26.676C98.737 27.636 98.941 28.524 99.349 29.34C99.781 30.156 100.381 30.816 101.149 31.32C101.917 31.8 102.817 32.04 103.849 32.04ZM117.772 36V17.28H122.56V20.016C123.544 17.904 125.452 16.848 128.284 16.848C129.628 16.848 130.84 17.16 131.92 17.784C133 18.408 133.852 19.296 134.476 20.448C135.1 21.6 135.412 22.968 135.412 24.552V36H130.552V25.74C130.552 24.108 130.18 22.932 129.436 22.212C128.692 21.468 127.72 21.096 126.52 21.096C125.488 21.096 124.576 21.468 123.784 22.212C123.016 22.932 122.632 24.108 122.632 25.74V36H117.772ZM139.928 36V17.28H144.716V20.016C145.7 17.904 147.608 16.848 150.44 16.848C151.784 16.848 152.996 17.16 154.076 17.784C155.156 18.408 156.008 19.296 156.632 20.448C157.256 21.6 157.568 22.968 157.568 24.552V36H152.708V25.74C152.708 24.108 152.336 22.932 151.592 22.212C150.848 21.468 149.876 21.096 148.676 21.096C147.644 21.096 146.732 21.468 145.94 22.212C145.172 22.932 144.788 24.108 144.788 25.74V36H139.928ZM171.047 36.468C169.127 36.468 167.435 36.024 165.971 35.136C164.507 34.248 163.367 33.072 162.551 31.608C161.759 30.12 161.363 28.476 161.363 26.676C161.363 24.876 161.783 23.232 162.623 21.744C163.463 20.232 164.603 19.032 166.043 18.144C167.507 17.256 169.175 16.812 171.047 16.812C172.919 16.812 174.563 17.256 175.979 18.144C177.419 19.032 178.535 20.232 179.327 21.744C180.143 23.232 180.551 24.876 180.551 26.676C180.551 26.94 180.539 27.216 180.515 27.504C180.491 27.792 180.455 28.092 180.407 28.404H166.403C166.667 29.508 167.195 30.408 167.987 31.104C168.803 31.8 169.823 32.148 171.047 32.148C172.103 32.148 173.015 31.908 173.783 31.428C174.575 30.948 175.187 30.348 175.619 29.628L179.399 32.472C178.655 33.648 177.539 34.608 176.051 35.352C174.563 36.096 172.895 36.468 171.047 36.468ZM170.975 20.988C169.823 20.988 168.839 21.336 168.023 22.032C167.207 22.728 166.667 23.64 166.403 24.768H175.655C175.391 23.736 174.839 22.848 173.999 22.104C173.183 21.36 172.175 20.988 170.975 20.988ZM193.166 36.468C191.822 36.468 190.562 36.216 189.386 35.712C188.234 35.208 187.214 34.512 186.326 33.624C185.438 32.712 184.742 31.668 184.238 30.492C183.758 29.292 183.518 28.008 183.518 26.64C183.518 24.816 183.938 23.172 184.778 21.708C185.642 20.22 186.818 19.032 188.306 18.144C189.818 17.256 191.522 16.812 193.418 16.812C195.122 16.788 196.646 17.088 197.99 17.712C199.334 18.336 200.402 19.2 201.194 20.304L197.45 23.364C197.018 22.716 196.454 22.2 195.758 21.816C195.086 21.432 194.33 21.24 193.49 21.24C192.458 21.24 191.558 21.492 190.79 21.996C190.022 22.476 189.422 23.124 188.99 23.94C188.582 24.756 188.378 25.656 188.378 26.64C188.378 27.6 188.594 28.5 189.026 29.34C189.482 30.156 190.094 30.816 190.862 31.32C191.654 31.8 192.566 32.04 193.598 32.04C194.534 32.04 195.326 31.836 195.974 31.428C196.622 30.996 197.186 30.456 197.666 29.808L201.194 32.868C200.306 33.996 199.202 34.884 197.882 35.532C196.586 36.156 195.014 36.468 193.166 36.468ZM212.009 36C210.161 36 208.745 35.544 207.761 34.632C206.777 33.72 206.285 32.244 206.285 30.204V21.42H203.657V17.28H206.285V13.5L211.145 12.996V17.28H215.105V21.42H211.145V29.952C211.145 31.104 211.649 31.68 212.657 31.68H214.673V36H212.009Z" fill="url(#paint0_linear_5_120)"/>
<defs>
<linearGradient id="paint0_linear_5_120" x1="0" y1="16.5" x2="224" y2="16.5" gradientUnits="userSpaceOnUse">
<stop stop-color="#E61E6A"/>
<stop offset="1" stop-color="#3E7FE6"/>
</linearGradient>
</defs>
</svg>
