<svg width="386" height="76" viewBox="0 0 386 76" fill="none" xmlns="http://www.w3.org/2000/svg">
<g filter="url(#filter0_d_36_405)">
<path d="M4 33.9991C4 15.2219 19.2219 0 37.9991 0H348.001C366.778 0 382 15.2219 382 33.9991C382 52.7764 366.778 67.9983 348.001 67.9983H37.9991C19.2219 67.9983 4 52.7764 4 33.9991Z" fill="black"/>
</g>
<path d="M44.4 54V20.4H56.4C60.272 20.4 63.472 21.136 66 22.608C68.56 24.08 70.464 26.08 71.712 28.608C72.992 31.136 73.632 34.016 73.632 37.248C73.632 40.448 72.992 43.312 71.712 45.84C70.464 48.368 68.56 50.368 66 51.84C63.472 53.28 60.272 54 56.4 54H44.4ZM55.584 26.448H51.12V47.952H55.584C58.24 47.952 60.384 47.488 62.016 46.56C63.648 45.6 64.832 44.32 65.568 42.72C66.304 41.088 66.672 39.264 66.672 37.248C66.672 35.2 66.304 33.376 65.568 31.776C64.832 30.144 63.648 28.848 62.016 27.888C60.384 26.928 58.24 26.448 55.584 26.448ZM90.6158 54.624C88.0558 54.624 85.7998 54.032 83.8478 52.848C81.8958 51.664 80.3758 50.096 79.2878 48.144C78.2318 46.16 77.7038 43.968 77.7038 41.568C77.7038 39.168 78.2638 36.976 79.3838 34.992C80.5038 32.976 82.0238 31.376 83.9438 30.192C85.8958 29.008 88.1198 28.416 90.6158 28.416C93.1118 28.416 95.3038 29.008 97.1918 30.192C99.1118 31.376 100.6 32.976 101.656 34.992C102.744 36.976 103.288 39.168 103.288 41.568C103.288 41.92 103.272 42.288 103.24 42.672C103.208 43.056 103.16 43.456 103.096 43.872H84.4238C84.7758 45.344 85.4798 46.544 86.5358 47.472C87.6238 48.4 88.9838 48.864 90.6158 48.864C92.0238 48.864 93.2398 48.544 94.2638 47.904C95.3198 47.264 96.1358 46.464 96.7118 45.504L101.752 49.296C100.76 50.864 99.2718 52.144 97.2878 53.136C95.3038 54.128 93.0798 54.624 90.6158 54.624ZM90.5198 33.984C88.9838 33.984 87.6718 34.448 86.5838 35.376C85.4958 36.304 84.7758 37.52 84.4238 39.024H96.7598C96.4078 37.648 95.6718 36.464 94.5518 35.472C93.4638 34.48 92.1198 33.984 90.5198 33.984ZM114.855 54L104.439 29.04H112.119L117.111 43.296C117.559 44.576 117.911 45.904 118.167 47.28C118.423 45.904 118.775 44.576 119.223 43.296L124.215 29.04H131.751L121.383 54H114.855ZM152.154 54.624C149.658 54.624 147.338 54.176 145.194 53.28C143.082 52.384 141.226 51.136 139.626 49.536C138.058 47.936 136.826 46.096 135.93 44.016C135.066 41.904 134.634 39.648 134.634 37.248C134.634 34.848 135.05 32.592 135.882 30.48C136.746 28.368 137.946 26.512 139.482 24.912C141.05 23.312 142.906 22.064 145.05 21.168C147.194 20.24 149.562 19.776 152.154 19.776C154.906 19.776 157.258 20.208 159.21 21.072C161.194 21.936 162.938 23.264 164.442 25.056L159.69 29.184C157.674 27.072 155.162 26.016 152.154 26.016C150.01 26.016 148.138 26.528 146.538 27.552C144.97 28.576 143.754 29.936 142.89 31.632C142.026 33.328 141.594 35.2 141.594 37.248C141.594 39.296 142.026 41.168 142.89 42.864C143.754 44.528 144.986 45.872 146.586 46.896C148.186 47.888 150.09 48.384 152.298 48.384C153.93 48.384 155.37 48.112 156.618 47.568C157.866 47.024 158.986 46.208 159.978 45.12L164.874 49.296C163.594 50.832 161.882 52.112 159.738 53.136C157.626 54.128 155.098 54.624 152.154 54.624ZM180.465 54.624C177.905 54.624 175.617 54.032 173.601 52.848C171.585 51.664 170.001 50.096 168.849 48.144C167.729 46.16 167.169 43.968 167.169 41.568C167.169 39.168 167.729 36.976 168.849 34.992C170.001 33.008 171.585 31.424 173.601 30.24C175.617 29.056 177.905 28.464 180.465 28.464C183.057 28.464 185.345 29.056 187.329 30.24C189.345 31.424 190.913 33.008 192.033 34.992C193.185 36.976 193.761 39.168 193.761 41.568C193.761 43.968 193.185 46.16 192.033 48.144C190.913 50.096 189.345 51.664 187.329 52.848C185.345 54.032 183.057 54.624 180.465 54.624ZM180.465 48.72C181.841 48.72 183.041 48.4 184.065 47.76C185.089 47.088 185.873 46.208 186.417 45.12C186.993 44.032 187.281 42.848 187.281 41.568C187.281 40.256 186.993 39.056 186.417 37.968C185.873 36.88 185.089 36.016 184.065 35.376C183.041 34.704 181.841 34.368 180.465 34.368C179.089 34.368 177.889 34.704 176.865 35.376C175.841 36.016 175.041 36.88 174.465 37.968C173.921 39.056 173.649 40.256 173.649 41.568C173.649 42.848 173.921 44.032 174.465 45.12C175.041 46.208 175.841 47.088 176.865 47.76C177.889 48.4 179.089 48.72 180.465 48.72ZM199.029 54V29.04H205.413V32.688C206.725 29.872 209.269 28.464 213.045 28.464C214.837 28.464 216.453 28.88 217.893 29.712C219.333 30.544 220.469 31.728 221.301 33.264C222.133 34.8 222.549 36.624 222.549 38.736V54H216.069V40.32C216.069 38.144 215.573 36.576 214.581 35.616C213.589 34.624 212.293 34.128 210.693 34.128C209.317 34.128 208.101 34.624 207.045 35.616C206.021 36.576 205.509 38.144 205.509 40.32V54H199.029ZM228.57 54V29.04H234.954V32.688C236.266 29.872 238.81 28.464 242.586 28.464C244.378 28.464 245.994 28.88 247.434 29.712C248.874 30.544 250.01 31.728 250.842 33.264C251.674 34.8 252.09 36.624 252.09 38.736V54H245.61V40.32C245.61 38.144 245.114 36.576 244.122 35.616C243.13 34.624 241.834 34.128 240.234 34.128C238.858 34.128 237.642 34.624 236.586 35.616C235.562 36.576 235.05 38.144 235.05 40.32V54H228.57ZM270.063 54.624C267.503 54.624 265.247 54.032 263.295 52.848C261.343 51.664 259.823 50.096 258.735 48.144C257.679 46.16 257.151 43.968 257.151 41.568C257.151 39.168 257.711 36.976 258.831 34.992C259.951 32.976 261.471 31.376 263.391 30.192C265.343 29.008 267.567 28.416 270.063 28.416C272.559 28.416 274.751 29.008 276.639 30.192C278.559 31.376 280.047 32.976 281.103 34.992C282.191 36.976 282.735 39.168 282.735 41.568C282.735 41.92 282.719 42.288 282.687 42.672C282.655 43.056 282.607 43.456 282.543 43.872H263.871C264.223 45.344 264.927 46.544 265.983 47.472C267.071 48.4 268.431 48.864 270.063 48.864C271.471 48.864 272.687 48.544 273.711 47.904C274.767 47.264 275.583 46.464 276.159 45.504L281.199 49.296C280.207 50.864 278.719 52.144 276.735 53.136C274.751 54.128 272.527 54.624 270.063 54.624ZM269.967 33.984C268.431 33.984 267.119 34.448 266.031 35.376C264.943 36.304 264.223 37.52 263.871 39.024H276.207C275.855 37.648 275.119 36.464 273.999 35.472C272.911 34.48 271.567 33.984 269.967 33.984ZM299.555 54.624C297.763 54.624 296.083 54.288 294.515 53.616C292.979 52.944 291.619 52.016 290.435 50.832C289.251 49.616 288.323 48.224 287.651 46.656C287.011 45.056 286.691 43.344 286.691 41.52C286.691 39.088 287.251 36.896 288.371 34.944C289.523 32.96 291.091 31.376 293.075 30.192C295.091 29.008 297.363 28.416 299.891 28.416C302.163 28.384 304.195 28.784 305.987 29.616C307.779 30.448 309.203 31.6 310.259 33.072L305.267 37.152C304.691 36.288 303.939 35.6 303.011 35.088C302.115 34.576 301.107 34.32 299.987 34.32C298.611 34.32 297.411 34.656 296.387 35.328C295.363 35.968 294.563 36.832 293.987 37.92C293.443 39.008 293.171 40.208 293.171 41.52C293.171 42.8 293.459 44 294.035 45.12C294.643 46.208 295.459 47.088 296.483 47.76C297.539 48.4 298.755 48.72 300.131 48.72C301.379 48.72 302.435 48.448 303.299 47.904C304.163 47.328 304.915 46.608 305.555 45.744L310.259 49.824C309.075 51.328 307.603 52.512 305.843 53.376C304.115 54.208 302.019 54.624 299.555 54.624ZM324.679 54C322.215 54 320.327 53.392 319.015 52.176C317.703 50.96 317.047 48.992 317.047 46.272V34.56H313.543V29.04H317.047V24L323.527 23.328V29.04H328.807V34.56H323.527V45.936C323.527 47.472 324.199 48.24 325.543 48.24H328.231V54H324.679Z" fill="url(#paint0_linear_36_405)"/>
<defs>
<filter id="filter0_d_36_405" x="0" y="0" width="386" height="75.9983" filterUnits="userSpaceOnUse" color-interpolation-filters="sRGB">
<feFlood flood-opacity="0" result="BackgroundImageFix"/>
<feColorMatrix in="SourceAlpha" type="matrix" values="0 0 0 0 0 0 0 0 0 0 0 0 0 0 0 0 0 0 127 0" result="hardAlpha"/>
<feOffset dy="4"/>
<feGaussianBlur stdDeviation="2"/>
<feComposite in2="hardAlpha" operator="out"/>
<feColorMatrix type="matrix" values="0 0 0 0 0 0 0 0 0 0 0 0 0 0 0 0 0 0 0.25 0"/>
<feBlend mode="normal" in2="BackgroundImageFix" result="effect1_dropShadow_36_405"/>
<feBlend mode="normal" in="SourceGraphic" in2="effect1_dropShadow_36_405" result="shape"/>
</filter>
<linearGradient id="paint0_linear_36_405" x1="42" y1="33.5" x2="345" y2="33.5" gradientUnits="userSpaceOnUse">
<stop stop-color="#E61E6A"/>
<stop offset="1" stop-color="#3E7FE6"/>
</linearGradient>
</defs>
</svg>
