<svg width="32" height="32" viewBox="0 0 32 32" fill="none" xmlns="http://www.w3.org/2000/svg">
<path d="M20.8413 22.61C18.7299 24.322 16.0932 25.2543 13.375 25.25C11.0264 25.25 8.73044 24.5535 6.77761 23.2487C4.82477 21.9439 3.30273 20.0892 2.40394 17.9194C1.50515 15.7495 1.26998 13.3618 1.72818 11.0583C2.18638 8.75478 3.31736 6.63886 4.97811 4.97811C6.63886 3.31736 8.75478 2.18638 11.0583 1.72818C13.3618 1.26998 15.7495 1.50515 17.9194 2.40394C20.0892 3.30273 21.9439 4.82477 23.2487 6.77761C24.5535 8.73044 25.25 11.0264 25.25 13.375C25.2539 16.0934 24.3212 18.7301 22.6088 20.8413L29.8838 28.1163C30.1115 28.352 30.2374 28.6678 30.2346 28.9955C30.2318 29.3233 30.1003 29.6368 29.8685 29.8685C29.6368 30.1003 29.3233 30.2318 28.9955 30.2346C28.6678 30.2374 28.352 30.1115 28.1163 29.8838L20.8413 22.61ZM22.75 13.375C22.75 10.8886 21.7623 8.50403 20.0041 6.74588C18.246 4.98773 15.8614 4.00001 13.375 4.00001C10.8886 4.00001 8.50403 4.98773 6.74588 6.74588C4.98773 8.50403 4.00001 10.8886 4.00001 13.375C4.00001 15.8614 4.98773 18.246 6.74588 20.0041C8.50403 21.7623 10.8886 22.75 13.375 22.75C15.8614 22.75 18.246 21.7623 20.0041 20.0041C21.7623 18.246 22.75 15.8614 22.75 13.375Z" stroke="url(#paint0_linear_126_376)" stroke-width="3"/>
<defs>
<linearGradient id="paint0_linear_126_376" x1="15.8673" y1="1.5" x2="15.8673" y2="30.2346" gradientUnits="userSpaceOnUse">
<stop stop-color="#E61E6A"/>
<stop offset="1" stop-color="#3E7FE6"/>
</linearGradient>
</defs>
</svg>
