<svg width="23" height="23" viewBox="0 0 23 23" fill="none" xmlns="http://www.w3.org/2000/svg">
<path d="M7.74414 0.672852C9.48997 0.325585 11.2998 0.504358 12.9443 1.18555C14.5887 1.86675 15.9945 3.02005 16.9834 4.5C17.9723 5.98001 18.5 7.72004 18.5 9.5V9.50098C18.5029 11.5606 17.7965 13.5586 16.499 15.1582L16.2148 15.5078L22.3477 21.6406L22.4082 21.7168C22.4606 21.7982 22.4882 21.894 22.4873 21.9922C22.4861 22.1232 22.4335 22.2481 22.3408 22.3408C22.2481 22.4335 22.1232 22.4861 21.9922 22.4873C21.894 22.4882 21.7982 22.4606 21.7168 22.4082L21.6406 22.3477L15.8262 16.5342L15.5078 16.2158L15.1582 16.5C13.5585 17.7971 11.5605 18.5032 9.50098 18.5H9.5C7.72004 18.5 5.98001 17.9723 4.5 16.9834C3.02005 15.9945 1.86675 14.5887 1.18555 12.9443C0.504358 11.2998 0.325585 9.48997 0.672852 7.74414C1.02012 5.99832 1.87708 4.39441 3.13574 3.13574C4.39441 1.87708 5.99832 1.02012 7.74414 0.672852ZM9.5 1.5C7.37827 1.5 5.34306 2.34248 3.84277 3.84277C2.34248 5.34306 1.5 7.37827 1.5 9.5C1.5 11.6217 2.34248 13.6569 3.84277 15.1572C5.34306 16.6575 7.37827 17.5 9.5 17.5C11.6217 17.5 13.6569 16.6575 15.1572 15.1572C16.6575 13.6569 17.5 11.6217 17.5 9.5C17.5 7.37827 16.6575 5.34306 15.1572 3.84277C13.6569 2.34248 11.6217 1.5 9.5 1.5Z" stroke="url(#paint0_linear_122_382)"/>
<defs>
<linearGradient id="paint0_linear_122_382" x1="11.4939" y1="0" x2="11.4939" y2="22.9877" gradientUnits="userSpaceOnUse">
<stop stop-color="#E61E6A"/>
<stop offset="1" stop-color="#3E7FE6"/>
</linearGradient>
</defs>
</svg>
