<svg width="47" height="47" viewBox="0 0 47 47" fill="none" xmlns="http://www.w3.org/2000/svg">
<g filter="url(#filter0_d_121_394)">
<path d="M11.8334 18.7008V26.5C11.8334 28.1333 11.8334 28.95 12.1513 29.5756C12.4313 30.124 12.8761 30.5702 13.4259 30.8488C14.0486 31.1667 14.8652 31.1667 16.4957 31.1667H30.5044C32.1348 31.1667 32.95 31.1667 33.5727 30.8488C34.1219 30.5698 34.5685 30.1241 34.8488 29.5756C35.1667 28.9515 35.1667 28.1363 35.1667 26.5058V18.7008C35.1667 17.9221 35.1667 17.5327 35.0719 17.1696C34.988 16.8486 34.8499 16.5443 34.6636 16.2698C34.4521 15.9592 34.1605 15.7011 33.5727 15.1892L26.5728 9.06417C25.4848 8.11188 24.9394 7.63501 24.3269 7.45417C23.7873 7.29376 23.2127 7.29376 22.6717 7.45417C22.0592 7.63501 21.5167 8.11042 20.4288 9.06126L13.4273 15.1892C12.8411 15.7025 12.548 15.9592 12.338 16.2683C12.151 16.5432 12.0124 16.848 11.9282 17.1696C11.8334 17.5313 11.8334 17.9221 11.8334 18.7008Z" fill="url(#paint0_linear_121_394)"/>
<path d="M21.6771 4.09851C22.8665 3.74593 24.1334 3.74535 25.3246 4.09949L25.3236 4.10046C26.1837 4.35546 26.8522 4.78158 27.3676 5.16687C27.8494 5.52716 28.3744 5.98945 28.8783 6.43054L28.8773 6.43152L35.8705 12.5497H35.8715C36.2807 12.9061 36.865 13.3924 37.3539 14.0214L37.557 14.3007L37.5599 14.3046C37.9186 14.8331 38.1957 15.4119 38.3832 16.0214L38.4584 16.2841V16.286C38.693 17.1852 38.6664 18.1048 38.6664 18.701V26.5057C38.6664 27.2631 38.6697 28.0425 38.6156 28.704C38.5581 29.4068 38.4188 30.2773 37.9672 31.1639L37.9652 31.1678C37.3497 32.3725 36.3688 33.3507 35.1635 33.9647L35.1644 33.9657C34.277 34.4188 33.4048 34.5576 32.7025 34.6151C32.0412 34.6693 31.2616 34.6669 30.5043 34.6669H16.4955C15.7381 34.6669 14.9588 34.6692 14.2972 34.6151C13.5976 34.5579 12.7289 34.4192 11.8441 33.9696V33.9706L11.8344 33.9657V33.9647C10.6215 33.3475 9.64617 32.3646 9.03455 31.1669L9.03064 31.161C8.58033 30.2747 8.4426 29.4043 8.38513 28.701C8.33106 28.039 8.33337 27.2589 8.33337 26.4999V18.701C8.33337 18.1072 8.30642 17.1823 8.54236 16.2821C8.7277 15.5748 9.03252 14.9042 9.44373 14.2997C9.96468 13.5335 10.6737 12.9476 11.1215 12.5555H11.1224L18.1234 6.42761L18.1254 6.42566C18.6279 5.98642 19.1528 5.52501 19.6332 5.16589C20.1484 4.78072 20.8163 4.35432 21.6771 4.09949V4.09851Z" stroke="url(#paint1_linear_121_394)" stroke-width="7" stroke-linecap="round" stroke-linejoin="round"/>
</g>
<defs>
<filter id="filter0_d_121_394" x="0.830811" y="0.333862" width="45.3385" height="45.8329" filterUnits="userSpaceOnUse" color-interpolation-filters="sRGB">
<feFlood flood-opacity="0" result="BackgroundImageFix"/>
<feColorMatrix in="SourceAlpha" type="matrix" values="0 0 0 0 0 0 0 0 0 0 0 0 0 0 0 0 0 0 127 0" result="hardAlpha"/>
<feOffset dy="4"/>
<feGaussianBlur stdDeviation="2"/>
<feComposite in2="hardAlpha" operator="out"/>
<feColorMatrix type="matrix" values="0 0 0 0 0 0 0 0 0 0 0 0 0 0 0 0 0 0 0.25 0"/>
<feBlend mode="normal" in2="BackgroundImageFix" result="effect1_dropShadow_121_394"/>
<feBlend mode="normal" in="SourceGraphic" in2="effect1_dropShadow_121_394" result="shape"/>
</filter>
<linearGradient id="paint0_linear_121_394" x1="23.5" y1="7.33386" x2="23.5" y2="31.1667" gradientUnits="userSpaceOnUse">
<stop stop-color="#E61E6A"/>
<stop offset="1" stop-color="#3E7FE6"/>
</linearGradient>
<linearGradient id="paint1_linear_121_394" x1="23.5" y1="7.33386" x2="23.5" y2="31.1667" gradientUnits="userSpaceOnUse">
<stop stop-color="#E61E6A"/>
<stop offset="1" stop-color="#3E7FE6"/>
</linearGradient>
</defs>
</svg>
